<?xml version="1.0" encoding="utf-8"?>
<!-- Generator: Adobe Illustrator 22.1.0, SVG Export Plug-In . SVG Version: 6.00 Build 0)  -->
<svg version="1.1" id="Layer_1" xmlns="http://www.w3.org/2000/svg" xmlns:xlink="http://www.w3.org/1999/xlink" x="0px" y="0px"
	 viewBox="0 0 154.3 183.2" style="enable-background:new 0 0 154.3 183.2;" xml:space="preserve">
<style type="text/css">
	.st0{fill-rule:evenodd;clip-rule:evenodd;}
	.st1{fill-rule:evenodd;clip-rule:evenodd;fill:#A11D25;}
	.st2{fill-rule:evenodd;clip-rule:evenodd;fill:#1C1311;}
	.st3{fill-rule:evenodd;clip-rule:evenodd;fill:#272120;}
	.st4{fill-rule:evenodd;clip-rule:evenodd;fill:#292323;}
	.st5{fill-rule:evenodd;clip-rule:evenodd;fill:#F5F4F3;}
	.st6{fill-rule:evenodd;clip-rule:evenodd;fill:#F7F6F6;}
	.st7{fill-rule:evenodd;clip-rule:evenodd;fill:#E6E5E4;}
	.st8{fill-rule:evenodd;clip-rule:evenodd;fill:#DEDDDC;}
	.st9{fill-rule:evenodd;clip-rule:evenodd;fill:#C02226;}
	.st10{fill-rule:evenodd;clip-rule:evenodd;fill:#DAD9D8;}
	.st11{fill-rule:evenodd;clip-rule:evenodd;fill:#F1F0EF;}
	.st12{fill-rule:evenodd;clip-rule:evenodd;fill:#EFEDED;}
	.st13{fill-rule:evenodd;clip-rule:evenodd;fill:#D3D2D1;}
	.st14{fill-rule:evenodd;clip-rule:evenodd;fill:#222323;}
	.st15{fill-rule:evenodd;clip-rule:evenodd;fill:#2F2F2F;}
	.st16{fill:#080201;}
	.st17{font-family:'Georgia';}
	.st18{font-size:19.2824px;}
</style>
<g>
	<rect x="0" class="st0" width="154.3" height="56.3"/>
	<path class="st0" d="M154.3,57.2c-0.1-2.1-0.6-2.6-2.7-2.6c-24.8,0.1-49.5,0-74.3,0c-3.1,0-6.2,0-9.2,0c-21.8,0-43.7,0-65.5,0
		c-1.2,0-2.5-0.4-2.5,1.7c-0.1,9.4,0.5,18.7,2.5,28c4,18,11.7,34.3,22.4,49.3c13.6,19.3,30.4,35.4,49.8,49c1.4,1,2.3,0.9,3.6,0
		c9.4-6.2,18.3-13.1,26.5-20.7h0l0,0c6.4-6,12.4-12.4,18-19.3C143.1,117.6,155.2,89.7,154.3,57.2z M104.8,153.3v-0.2h0.6
		c0,0-0.1,0-0.1,0C105.2,153.2,105,153.2,104.8,153.3z"/>
	<g>
		<path class="st1" d="M77.4,55c23.6,0,47.2,0,70.8,0c2,0,2.5,0.5,2.6,2.5c0.8,31.5-10.6,58.5-29.9,82.6
			c-12.1,15.1-26.3,27.9-42.4,38.6c-1.3,0.9-2.2,0.9-3.5,0c-18.5-13.1-34.5-28.8-47.5-47.4C17.4,116.8,10,101.1,6.2,83.7
			c-1.9-8.9-2.5-17.9-2.4-27c0-2,1.2-1.6,2.4-1.6c20.8,0,41.6,0,62.4,0C71.5,55,74.5,55,77.4,55z M107,95.6L107,95.6
			c0.9-1.4,2.9-1.7,3.3-3.4c0.6-2.3,1.9-3.8,4.2-4.6c0.7-0.3,1.5-0.7,1.3-1.6c-0.2-0.9-1-1.2-1.7-1.3c-2.3-0.5-4.5,0-6.3,1.6
			c-2.2,2-5.1,2.3-7.3,4.4c-0.5-2.1,0.3-3.5,1.2-4.9c1.8-2.5,4.3-4.3,7.1-5.7c0.8-0.4,1.6-0.4,2.4,0c4.5,1.9,5,1.7,8.1-2.2
			c0.8-1.1,1.8-1.5,3.1-1.1c0.9,0.3,1.9,0.7,2.7-0.4c0.8-1.1,0.5-2.3-0.2-3.1c-1.4-1.6-1.4-3.4-1.4-5.4c0.1-3.7-2.2-6.6-5.3-7
			c-0.8-0.1-1.6-0.2-2.1,0.6c-0.4,0.7-0.1,1.3,0.3,2c1.4,2.5,1,4.7-1.2,6.4c-1.2,0.9-2.5,1.6-3.8,2.3c-4.5,2.4-9.3,4.6-13.1,8.2
			c-4.5,4.1-7,9-5.4,15.3c0.7,3,2.3,5.7,4.2,8.1c1.8,2.2,3.6,4.5,4.3,7.3c0.8,2.8-0.5,4.3-3.3,4.3c-2.2,0-4.1-0.9-5.6-2.4
			c-3.6-3.5-5.7-7.9-7.6-12.4c-0.1-0.3-0.3-0.6,0.2-0.9c0.1,0.2,0.3,0.3,0.4,0.5c0.5,1,1,2.4,2.3,2c1.4-0.4,1.2-2,1.2-3.2
			c0-0.2-0.1-0.4-0.1-0.6c-0.3-2.8-2.1-4.6-4-6.4c-0.8-0.7-1.8-1.5,0.1-2.2c1-0.4,0.8-1.3,0.7-2.1c-0.2-1.3-0.6-2.6-0.5-3.9
			c0.1-1.1-0.4-2.5,0.9-3.2c1.2-0.7,1.1-1.8,0.9-2.9c-0.5-2.9-0.7-5.8,0.4-8.7c0.7-2-1-5.7-2.7-6c-2.5-0.4-4.7-1.4-6.9-2.4
			c-1.9-0.9-8.9,0.5-10.3,1.9c-0.6,0.6-0.9,1.4-1,2.2c-0.1,0.6,0.4,1.5-0.5,1.6c-0.8,0.1-1.3-0.7-1.6-1.4c-0.3-0.6-0.2-1.2-0.1-1.8
			c0.3-1.7-0.7-2.6-2.3-2.9c-2-0.4-3.3,0.4-4.1,2.3c-0.9,2.2-0.8,4,0.9,5.3c1.5,1.1,3.2,2,4.8,3c1.2,0.7,1.6,1.6,0.7,2.7
			c-0.9,1.1-0.6,2,0.2,3c-1.7,0.3-3-0.2-3.9-1.4c-0.6-0.8-1.1-2-2.3-1.8c-1.3,0.2-1.5,1.6-1.9,2.6c-0.2,0.4-0.3,0.8-0.3,1.2
			c-0.1,1.4-0.9,1.5-2,1.1c-3-1.1-5.8-2.7-8.4-4.6c-3.5-2.5-6.5-5.5-7.5-10c-0.3-1.1-0.9-2.1-1.7-2.8c-0.9-0.9-2.5-1.6-3.2-0.7
			c-1.3,1.9-2.8,1.2-4.3,1c-1.1-0.1-2,0.4-2.8,1.1c-1.1,1-1.3,2.2,0.3,2.8c1.5,0.5,1.1,2,1.9,2.8c1.2,1.3,0.1,2-0.6,2.9
			c-0.2,0.3-0.3,0.8-0.5,1.1c-0.9,2.2,0,3.4,2.4,3.5c1.5,0,2.9,0.6,4.4,0.3c0.7-0.1,1.1,0.3,1.1,0.9c0.1,1.3,0.1,2.6-1,3.7
			c-1,0.9-1.8,1.9-3.1,2.5c-1,0.5-1.6,1.2-1.3,2.3c0.3,1.1,1.2,1.1,2.2,1.2c1.8,0,3.5-0.3,5.1-1c1.1-0.5,1.9-0.4,2.6,0.7
			c0.9,1.4,2.1,2,3.7,0.7c1-0.9,1.6-0.3,2.1,0.7c1.3,3.1,1.3,3.1-1.9,3.5c-0.5,0-1,0.2-1.4,0.3c-0.8,0.2-1.6,0.4-1.7,1.3
			c-0.1,1,0.5,1.6,1.3,1.9c0.6,0.3,1.2,0.5,1.8,0.6c2.3,0.7,4.7,0.8,7.7,0.4c-3.1,2.6-6.2,4-9.5,5.2c-2.3,0.9-4.1,1-5.8-0.8
			c-1.2-1.2-2.7-1.3-4.3-1c-2.1,0.4-3.4,3.2-1.9,4.4c1.4,1.2,0.9,2.1,0.4,3.3c-0.7,1.5-1.7,2.9-1.9,4.6c-0.1,1-0.2,2.1,0.9,2.6
			c1.1,0.6,2.1,0.1,2.7-0.9c0.4-0.7,1-0.9,1.7-0.9c1.2,0,2.4,0,3.4-0.7c0.7-0.5,0.9,0.1,1.2,0.7c0.6,1.7,1.7,2,3.2,1
			c1-0.7,1.6-1.7,2.2-2.7c0.7-1.1,1.8-1.7,2.8-1.2c1.2,0.6,0,1.5-0.2,2.3c-0.3,0.8-1,1.7-0.2,2.5c0.9,1,2,0.4,2.9-0.1
			c2-1.1,3.3-2.9,4.6-4.7c0.3-0.4,0.6-1.2,1.1-1.2c2.1,0.3,3-1.4,4.3-2.8c0.5,2.1,1.6,2,3.2,1.5c1.1-0.4,1.9-1.6,3.2-1.3
			c2.2,0.5,4.4,1,6.5,1.7c1.8,0.6,1,2.2,1.1,3.4c0.1,1.2-0.9,1-1.7,1c-2.4,0.2-4.7,0.3-7.1,0.4c-1.7,0.1-3.5,0.4-4.6,1.6
			c-2.4,2.9-6.2,3.3-9.1,5.4c-0.9,0.7-2.2,1-3.4,1c-0.9,0-1.8,0-2.7,0.1c-0.8,0.1-1.8,0.4-1.9,1.3c-0.2,0.8,0.5,1.4,1.1,1.9
			c1.5,1.2,3.4,1.7,5.2,2c1.2,0.2,2,0.3,2.2,1.7c0.1,0.8,0.9,1.8,1.7,1.6c2.1-0.7,2.8,1,4,1.8c0.4,0.3,1,0.6,0.7,1.1
			c-0.2,0.5-0.8,0.4-1.3,0.3c-1-0.2-2.1-0.3-3.1,0c-1.6,0.5-3,0-4.2-1.1c-1.2-1.2-2.5-2.5-4.2-3c-2.1-0.6-5.3,0.9-4.9,2.5
			c0.5,2.2-0.7,3.4-1.7,4.9c-0.4,0.7-0.7,1.6-0.5,2.4c0.3,1,0.7,2.1,1.9,1.7c1.8-0.7,1.7,0.4,1.9,1.6c0.3,2.4,1.2,2.9,3.3,2
			c0.8-0.3,1.5-0.4,2.2,0c0.8,0.4,1.5,0.2,2.2-0.1c2.9-1.2,3.1-1.1,4.7,1.7c0.8,1.4,2.1,2.3,3.6,2.5c1.6,0.3,2.5-0.3,2.4-2.2
			c-0.1-3,0-3.2,2.9-2.9c4.1,0.3,7.7-0.2,9.3-4.7c0.2-0.6,0.5-1.1,0.6-1.7c0.2-0.8,0.4-1,1.3-0.8c2.6,0.4,2.8,0.2,2.3-2.4
			c-0.5-2.6-0.5-5.2,1.7-7.7c0.6,2.6,1.9,5.1,1.5,7.1c-0.7,3.9-0.9,8.5-5.3,10.9c-0.9,0.5-1.4,1.2-1.1,2.2c0.3,1.1,1.2,1,2,1.1
			c3,0.2,5.6-0.9,8-2.6c2.3-1.6,4.8-3.1,7.8-1.8c0.4,0.2,0.8,0.1,1.2,0.1c3.3-0.2,4.5,1.1,3.9,4.4c-0.2,1.3-0.8,1.9-2.2,1.3
			c-1.3-0.6-2.5-1.2-3.9-1.5c-1.9-0.5-4.6,1.2-4.1,2.8c0.7,2.1-0.3,3.6-0.9,5.3c-0.5,1.6,0.3,3.1,1.7,2.9c2.8-0.4,5,0.7,7.2,2.2
			c1.3,0.8,2.8,1.3,3.5-0.8c0.3-0.7,1.1-0.9,1.7-1.1c1.1-0.4,1.7-1.1,2-2.2c0.5-1.8,1.6-3,3.5-3.4c0.9-0.2,1.8-0.6,2.6-1.3
			c0.5-0.5,0.9-0.9,0.2-1.5c-1.4-1.2-0.8-2.4,0-3.7c1.3-2.1,0.8-7.5-0.9-9.4c-0.4-0.4-0.8-0.8-1.3-1c-0.8-0.4-1.6-0.7-2.5-1.2
			c1.2-0.8,2.1-0.2,3.1,0.1c1.2,0.4,2.4,0.8,3.2-0.5c0.7-1.2-0.2-2.1-0.9-3c-1.6-2.1-4-2.5-6.2-3.1c-1.7-0.5-3.5-0.8-4.8-2.2
			c0.1-0.2,0.2-0.2,0.2-0.2c0.3,0,0.7,0,1,0c3.5,0.2,6.5-0.8,8.6-3.8c0.5-0.7,1.2-1.5,2-1.8c3-1.1,3.9-3.6,4-6.3
			c0.1-2.9,0.8-4.9,3.9-5.5c0.7-0.1,1.2-0.7,1.2-1.5c0.1-0.9-0.7-1.1-1.3-1.4c-1.2-0.7-2.7-0.8-4.3-1.4c1.6-1.6,3.5-2.1,5.1-3.2
			c1.7-1.2,3.1-2.6,3.3-4.8c0.1-0.8-0.1-1.6-0.7-2.1c-0.7-0.5-1.5-0.2-2.1,0.3C114.5,94.4,110.7,94.7,107,95.6z"/>
		<path class="st1" d="M77.1,44.3c-23.6,0-47.2,0-70.8,0c-1.9,0-2.5-0.4-2.5-2.4c0.1-12.4,0.1-24.9,0-37.3C3.8,3,4.1,2.4,6,2.4
			c47.6,0,95.1,0,142.7,0c1.6,0,2.2,0.4,2.1,2.1c-0.1,12.6-0.1,25.1,0,37.7c0,1.8-0.6,2.2-2.3,2.2C124.7,44.3,100.9,44.3,77.1,44.3z
			 M87.7,40.6C87.7,40.6,87.7,40.6,87.7,40.6c1.7,0.1,3.3,0.1,5,0.1c4.1,0,4.2,0,4.3-4.1c0.1-1.2,0.1-2.1,1.7-2.3
			c1.3-0.1,2.5-0.7,2.5-2.3c0-1.7-1.1-2.5-2.7-2.6c-1.1-0.1-1.6-0.6-1.6-1.7c0-2.2,0-4.5,0-6.7c0-1,0.3-1.7,1.6-1.8
			c1.5-0.1,2.8-0.5,2.9-2.3c0.1-1.9-1-2.8-2.8-3c-1.2-0.1-1.5-0.8-1.6-1.8c0-0.8,0-1.7,0-2.5c0-1.2-0.7-2-1.7-2
			C90.5,7.7,85.6,7,80.7,7.7C78.5,8,76.5,8.4,74.1,8c-4.2-0.7-8.6-0.4-12.9-0.5c-1.6,0-2.5,0.8-2.6,2.4c-0.1,0.7-0.1,1.4-0.1,2.1
			c0.1,1.4-0.4,2.1-1.9,2.1c-1.5-0.1-2.6,0.6-2.7,2.2c-0.1,1.7,1,2.5,2.6,2.5c1.4,0,1.9,0.8,1.9,2c0,2.2,0,4.3,0.1,6.5
			c0.1,1.4-0.4,2.1-1.9,2c-1.7-0.1-3,0.5-3.1,2.3c-0.1,2,1.4,2.6,2.9,2.6c1.9,0,2.2,0.8,2.1,2.4c-0.1,3.4,0.7,4.1,4.1,4
			c3.3-0.1,6.7-0.6,9.8,0c3.2,0.6,6,0.8,9.2,0C83.5,40.1,85.6,40.6,87.7,40.6z M136.2,40.6C136.2,40.6,136.2,40.6,136.2,40.6
			c1.6,0.1,3.2,0.1,4.8,0.1c4.1,0,4.1,0,4.1-4.1c0-1.1-0.1-2.2,1.5-2.4c1.3-0.2,2.5-0.8,2.4-2.4c-0.1-1.5-0.9-2.2-2.3-2.5
			c-0.8-0.2-1.6-0.4-1.6-1.5c0-1.9-0.1-3.8-0.3-5.6c-0.1-1.7,0.2-3,2.3-3.1c1.4-0.1,2-1.3,2.1-2.5c0.1-1.3-0.6-2.5-2-2.5
			c-2.4,0-2.7-1.3-2.4-3.3c0.2-1.9-0.5-3-2.7-3.1c-4.2-0.2-8.4-0.6-12.5,0.1c-2.8,0.5-5.3,0.5-8.1,0.2c-3.8-0.5-7.7-0.3-11.5-0.4
			c-3.1-0.1-3.2-0.1-3.1,3.1c0,2-0.3,3.3-2.7,3.5c-1.5,0.1-2.2,1.2-2.1,2.6c0.1,1.5,1,2.2,2.5,2.2c1,0,1.9,0.2,1.9,1.6
			c-0.1,2.3,0,4.6,0,6.9c0,1.1-0.3,1.7-1.5,1.7c-1.5,0.1-2.6,0.7-2.6,2.4c0,1.6,1,2.4,2.6,2.4c1.4,0.1,2,0.9,1.8,2.2
			c-0.1,0.6,0,1.1,0,1.7c-0.1,1.6,0.5,2.5,2.3,2.4c1.5-0.1,3.1,0.3,4.6,0.1c5.4-0.9,10.7,2.4,16.1,0.2c0.2-0.1,0.6,0,0.8,0
			C132.6,40.6,134.4,40.6,136.2,40.6z M39.3,40.2C39.3,40.2,39.3,40.3,39.3,40.2c1.5,0.1,3.1,0.1,4.6,0.1c3.9-0.1,4.2,1,4-4
			c-0.1-1.3,0.2-2,1.7-1.9c1.8,0.2,3-0.4,3-2.5c0.1-2.1-1.1-2.7-2.9-2.7c-1.2,0-1.8-0.4-1.7-1.7c0.1-2.3,0-4.6,0-6.9
			c0-1.1,0.4-1.7,1.6-1.7c1.7,0,2.8-0.8,2.9-2.6c0-1.8-1.2-2.5-2.7-2.5c-1.3,0-1.6-0.6-1.7-1.6c0-0.7-0.1-1.4,0-2.1
			c0.2-1.8-0.7-2.3-2.3-2.3c-2.6,0-5.3,0-7.9-0.2c-3.1-0.3-6.3-0.3-9.3,0.7c-0.4,0.1-1,0.1-1.4,0c-4.9-1.4-9.8-0.7-14.8-0.9
			c-1.2,0-2.2,0.4-2.1,2c0,0.5-0.2,1.1-0.2,1.7c0.1,1.8-0.5,2.6-2.5,2.5c-1.6-0.1-2.4,1-2.2,2.6c0.2,1.5,1.2,2.2,2.6,2.3
			c1.4,0.1,1.9,0.8,1.9,2.2c0,2-0.1,4.1,0,6.1c0.1,1.5-0.3,2.2-1.9,2.2c-1.3,0-2.1,0.9-2.2,2.3c-0.1,1.3,0.1,2.7,1.6,2.7
			c2.7,0.1,2.8,1.7,2.6,3.8c-0.1,1.4,0.5,2.2,2.1,2.2c3.6,0,7.3-0.3,10.8,0.4c3.7,0.7,7.2,1.1,11,0C35.4,39.8,37.5,40.2,39.3,40.2z"
			/>
		<path class="st2" d="M107,95.6c3.6-0.9,7.5-1.2,10.5-3.8c0.6-0.5,1.4-0.8,2.1-0.3c0.6,0.5,0.8,1.3,0.7,2.1
			c-0.2,2.2-1.6,3.6-3.3,4.8c-1.6,1.1-3.5,1.7-5.1,3.2c1.6,0.5,3,0.6,4.3,1.4c0.6,0.4,1.3,0.5,1.3,1.4c0,0.8-0.5,1.4-1.2,1.5
			c-3.1,0.6-3.8,2.6-3.9,5.5c-0.1,2.7-1,5.2-4,6.3c-0.8,0.3-1.5,1.1-2,1.8c-2.1,3-5.1,4-8.6,3.8c-0.3,0-0.7,0-1,0
			c0,0-0.1,0.1-0.2,0.2c1.3,1.4,3.1,1.7,4.8,2.2c2.3,0.6,4.7,1,6.2,3.1c0.7,0.9,1.6,1.8,0.9,3c-0.8,1.3-2,0.9-3.2,0.5
			c-1-0.3-1.9-0.9-3.1-0.1c0.9,0.4,1.8,0.8,2.5,1.2c0.5,0.3,0.9,0.6,1.3,1c1.7,1.8,2.2,7.3,0.9,9.4c-0.8,1.3-1.4,2.5,0,3.7
			c0.7,0.6,0.3,1-0.2,1.5c-0.7,0.7-1.6,1.1-2.6,1.3c-1.9,0.4-3,1.7-3.5,3.4c-0.3,1.1-0.9,1.8-2,2.2c-0.6,0.2-1.4,0.4-1.7,1.1
			c-0.8,2.1-2.3,1.6-3.5,0.8c-2.2-1.4-4.4-2.5-7.2-2.2c-1.4,0.2-2.2-1.3-1.7-2.9c0.6-1.7,1.6-3.1,0.9-5.3c-0.5-1.5,2.2-3.3,4.1-2.8
			c1.3,0.4,2.6,1,3.9,1.5c1.4,0.6,2,0,2.2-1.3c0.6-3.3-0.6-4.6-3.9-4.4c-0.4,0-0.9,0.1-1.2-0.1c-3.1-1.3-5.5,0.2-7.8,1.8
			c-2.4,1.7-5,2.8-8,2.6c-0.9-0.1-1.8,0-2-1.1c-0.2-1,0.2-1.8,1.1-2.2c4.3-2.3,4.5-6.9,5.3-10.9c0.4-2-0.9-4.5-1.5-7.1
			c-2.3,2.5-2.2,5-1.7,7.7c0.5,2.6,0.4,2.9-2.3,2.4c-0.9-0.1-1.1,0.1-1.3,0.8c-0.1,0.6-0.4,1.2-0.6,1.7c-1.6,4.5-5.1,5.1-9.3,4.7
			c-3-0.2-3.1-0.1-2.9,2.9c0.1,1.8-0.8,2.4-2.4,2.2c-1.6-0.3-2.8-1.1-3.6-2.5c-1.6-2.8-1.8-2.9-4.7-1.7c-0.7,0.3-1.5,0.5-2.2,0.1
			c-0.7-0.3-1.4-0.3-2.2,0c-2.1,0.8-3,0.3-3.3-2c-0.2-1.2,0-2.3-1.9-1.6c-1.3,0.5-1.7-0.7-1.9-1.7c-0.2-0.9,0-1.7,0.5-2.4
			c0.9-1.5,2.2-2.6,1.7-4.9c-0.4-1.6,2.9-3.1,4.9-2.5c1.8,0.5,3,1.8,4.2,3c1.2,1.2,2.5,1.6,4.2,1.1c1-0.3,2.1-0.2,3.1,0
			c0.5,0.1,1.1,0.2,1.3-0.3c0.2-0.5-0.3-0.9-0.7-1.1c-1.2-0.8-2-2.5-4-1.8c-0.8,0.3-1.6-0.7-1.7-1.6c-0.2-1.4-1-1.5-2.2-1.7
			c-1.9-0.3-3.7-0.8-5.2-2c-0.6-0.5-1.3-1-1.1-1.9c0.2-1,1.1-1.2,1.9-1.3c0.9-0.1,1.8-0.1,2.7-0.1c1.2-0.1,2.5-0.3,3.4-1
			c2.8-2.1,6.6-2.5,9.1-5.4c1.1-1.3,2.9-1.5,4.6-1.6c2.4-0.1,4.7-0.3,7.1-0.4c0.7,0,1.8,0.1,1.7-1c-0.1-1.2,0.8-2.9-1.1-3.4
			c-2.1-0.7-4.3-1.2-6.5-1.7c-1.3-0.3-2.1,0.9-3.2,1.3c-1.5,0.5-2.7,0.6-3.2-1.5c-1.3,1.4-2.1,3.1-4.3,2.8c-0.5-0.1-0.8,0.7-1.1,1.2
			c-1.3,1.8-2.6,3.7-4.6,4.7c-0.9,0.5-2,1.1-2.9,0.1c-0.8-0.8-0.1-1.7,0.2-2.5c0.2-0.8,1.4-1.7,0.2-2.3c-1-0.5-2.2,0.1-2.8,1.2
			c-0.6,1-1.2,2.1-2.2,2.7c-1.5,1-2.6,0.7-3.2-1c-0.2-0.6-0.5-1.1-1.2-0.7c-1.1,0.7-2.3,0.7-3.4,0.7c-0.8,0-1.3,0.2-1.7,0.9
			c-0.6,1-1.6,1.4-2.7,0.9c-1-0.5-1-1.6-0.9-2.6c0.2-1.7,1.2-3.1,1.9-4.6c0.5-1.1,1-2.1-0.4-3.3c-1.5-1.2-0.2-4,1.9-4.4
			c1.6-0.3,3.1-0.1,4.3,1c1.8,1.8,3.5,1.7,5.8,0.8c3.3-1.3,6.4-2.6,9.5-5.2c-2.9,0.4-5.3,0.3-7.7-0.4c-0.6-0.2-1.2-0.4-1.8-0.6
			c-0.8-0.4-1.4-1-1.3-1.9c0.1-0.9,1-1.1,1.7-1.3c0.5-0.1,1-0.2,1.4-0.3c3.3-0.3,3.3-0.3,1.9-3.5c-0.4-1-1.1-1.6-2.1-0.7
			c-1.5,1.3-2.7,0.7-3.7-0.7c-0.7-1.1-1.5-1.2-2.6-0.7c-1.6,0.7-3.3,1-5.1,1c-1,0-1.9-0.1-2.2-1.2C29.4,83.7,30,83,31,82.5
			c1.2-0.6,2.1-1.6,3.1-2.5c1.1-1,1.1-2.4,1-3.7c-0.1-0.7-0.5-1.1-1.1-0.9C32.4,75.7,31,75,29.5,75c-2.4,0-3.2-1.3-2.4-3.5
			c0.2-0.4,0.3-0.8,0.5-1.1c0.7-0.9,1.8-1.6,0.6-2.9c-0.7-0.8-0.4-2.3-1.9-2.8c-1.6-0.6-1.4-1.8-0.3-2.8c0.8-0.7,1.7-1.3,2.8-1.1
			c1.5,0.2,3,0.9,4.3-1c0.6-0.9,2.2-0.2,3.2,0.7c0.8,0.8,1.4,1.7,1.7,2.8c1.1,4.4,4,7.4,7.5,10c2.6,1.9,5.4,3.5,8.4,4.6
			c1.1,0.4,1.9,0.3,2-1.1c0-0.4,0.1-0.8,0.3-1.2c0.4-1,0.6-2.3,1.9-2.6c1.3-0.2,1.7,0.9,2.3,1.8c0.9,1.2,2.1,1.7,3.9,1.4
			c-0.9-1-1.1-1.9-0.2-3c0.9-1.1,0.5-2-0.7-2.7c-1.6-1-3.3-1.9-4.8-3c-1.7-1.2-1.9-3.1-0.9-5.3c0.8-1.9,2.1-2.7,4.1-2.3
			c1.6,0.3,2.5,1.2,2.3,2.9c-0.1,0.6-0.1,1.2,0.1,1.8c0.3,0.7,0.8,1.5,1.6,1.4c0.8-0.1,0.3-1,0.5-1.6c0.2-0.8,0.4-1.6,1-2.2
			c1.4-1.5,8.4-2.8,10.3-1.9c2.2,1,4.4,2,6.9,2.4c1.6,0.3,3.4,4,2.7,6c-1,2.9-0.9,5.7-0.4,8.7c0.2,1.1,0.3,2.2-0.9,2.9
			c-1.3,0.8-0.8,2.1-0.9,3.2c-0.1,1.3,0.3,2.6,0.5,3.9c0.1,0.8,0.4,1.8-0.7,2.1c-1.9,0.7-0.9,1.5-0.1,2.2c1.9,1.8,3.7,3.6,4,6.4
			c0,0.2,0.1,0.4,0.1,0.6c0,1.2,0.2,2.8-1.2,3.2c-1.3,0.4-1.8-1-2.3-2c-0.1-0.2-0.2-0.3-0.4-0.5c-0.5,0.2-0.3,0.6-0.2,0.9
			c1.9,4.5,4,8.9,7.6,12.4c1.6,1.5,3.4,2.4,5.6,2.4c2.9,0,4.1-1.5,3.3-4.3c-0.8-2.8-2.5-5.1-4.3-7.3c-2-2.4-3.5-5.1-4.2-8.1
			c-1.6-6.3,0.9-11.2,5.4-15.3c3.8-3.6,8.6-5.7,13.1-8.2c1.3-0.7,2.6-1.3,3.8-2.3c2.2-1.8,2.6-3.9,1.2-6.4c-0.3-0.6-0.7-1.2-0.3-2
			c0.5-0.8,1.3-0.7,2.1-0.6c3.1,0.4,5.4,3.3,5.3,7c-0.1,2,0,3.8,1.4,5.4c0.7,0.8,1,2,0.2,3.1c-0.7,1-1.7,0.7-2.7,0.4
			c-1.3-0.4-2.2,0-3.1,1.1c-3.1,3.9-3.6,4.1-8.1,2.2c-0.8-0.4-1.6-0.4-2.4,0c-2.8,1.4-5.2,3.2-7.1,5.7c-1,1.3-1.7,2.7-1.2,4.9
			c2.2-2.1,5.2-2.4,7.3-4.4c1.7-1.6,3.9-2,6.3-1.6c0.7,0.1,1.6,0.4,1.7,1.3c0.2,1-0.6,1.4-1.3,1.6c-2.2,0.8-3.6,2.2-4.2,4.6
			C109.9,93.9,107.9,94.2,107,95.6c-0.2,0-0.4,0.1-0.5,0.1c0,0.1,0.1,0.2,0.1,0.1C106.8,95.8,106.9,95.7,107,95.6z M122.2,73.6
			c-2.3-1.2-1.9-2.7-1.1-4.4c0.5-1.1,0.1-2.3-0.2-3.5c-0.1-0.6-0.5-1.2-1.1-1.1c-0.5,0.1-0.5,0.8-0.5,1.3c0,2.3-1.3,4.1-2.9,5.6
			c-1.9,1.7-4.1,2.9-6.4,4c-3.6,1.8-7.2,3.7-10.3,6.4c-5.1,4.6-7.5,11.3-2.2,18.2c0.9,1.2,1.9,2.4,2.8,3.7c1.6,2.1,3,4.3,3.4,7.1
			c0.6,4-1.9,7.1-5.9,7c-2.4,0-4.5-1-6.3-2.5c-4.8-4-7.6-9.2-9.3-15.1c-0.7-2.3-1.5-4.3-3.7-5.7c-1.6-1.1-2.4-1.2-3.5,0.4
			c-0.5,0.8-1.3,1.8-2.3,0.6c-1-1.3-1.4-0.5-1.9,0.4c-1,1.6-1.9,3.2-3.2,4.6c-0.6,0.6-1.4,1.4-1,2.3c0.4,0.9,1.5,0.9,2.4,1
			c6.5,0.7,12.5,6.8,11.3,14.3c-0.6,3.9-0.1,7.5,1.2,11.1c0.3,0.9,0.7,1.8,0.2,2.6c-1.3,2.3-1.6,4.9-2.6,7.2c-0.4,1-1.8,2.2-0.8,2.9
			c0.9,0.6,2.2-0.7,3.2-1.5c0.3-0.3,0.5-0.7,0.8-0.9c1.1-1,1.2-3.9,3.9-2.2c0.1,0.1,0.3-0.2,0.5-0.3c0.5-0.3,1.1-0.3,1.5,0.1
			c0.9,0.9,2.1,1,3.3,1.1c4.5,0.3,5.5,1.1,6.2,5.5c0.5,2.9-0.4,4.5-3,5.6c-1.5,0.6-3.1,0.9-4.7,1.1c-0.9,0.1-1.6,0.5-2,1.3
			c-0.3,0.6,0.2,1.1,0.6,1.4c0.8,0.5,1.7,1.1,2.7,0.3c0.3-0.3,0.7-0.5,1.1-0.6c0.5-0.2,1-0.2,1.1,0.5c0.1,0.7,0,1.6,1,1.4
			c1.3-0.2,3.1,0.1,3.6-1.6c0.5-1.8,1.6-2.8,3-3.5c1.7-0.9,2.6-1.8,2.2-3.8c-0.1-0.6,0.4-1.4,0.8-1.9c1.1-1.3,0.9-2.7,0.5-4.1
			c-0.1-0.5-0.4-1.1-0.4-1.6c0.2-2.2-1-2.9-2.9-3.4c-2-0.5-3.7-1.7-5-3.2c-0.3-0.4-0.6-0.8-0.3-1.3c0.3-0.5,0.8-0.2,1.1-0.1
			c1.9,0.4,3.8,0.1,5.6,0c0.5,0,1.1,0.2,1.2-0.4c0.1-0.7-0.5-0.9-1.1-1.1c-1.3-0.3-2.6-0.7-3.9-0.9c-3.3-0.7-5.5-2.8-7.1-5.7
			c-0.2-0.4-0.7-1-0.2-1.5c0.5-0.6,1.1-0.4,1.7-0.2c0.4,0.2,0.9,0.5,1.3,0.7c3.7,1.7,8.2,0.2,10-3.5c0.4-0.7,0.7-1.4,1.6-1.5
			c2.1-0.4,2.9-2,3.1-3.9c0.3-1.8,0.3-3.7,1.5-5.4c0.6-0.8,2.5-1,1.8-2.1c-0.6-0.9-2,0.1-3.1,0.4c-0.1,0-0.1,0.1-0.2,0.1
			c-0.5,0.1-1.1,0.3-1.6-0.2c-0.4-0.5,0-1,0.2-1.5c1.3-2.6,3.3-4.3,5.8-5.4c0.6-0.3,1.6-0.3,1.6-1.5c-3.8,0.1-7.4,0.5-10.1,3.4
			c-0.5,0.5-1.1,1.3-1.9,0.8c-0.8-0.5-0.8-1.4-0.7-2.2c0.3-2.2,1.5-3.7,3.3-4.8c1.7-1,2.4-2.5,2.8-4.8c-3.3,1.7-7.2,1.9-8.5,5.9
			c-0.4,1.3-1.3,1.1-2,0.1c-1.1-1.8-1.1-3.7-0.6-5.6c1.4-5.5,5.8-8.3,10.4-10.8c1.2-0.7,2.4-0.7,3.6,0.1c2,1.3,3.7,0.8,5.2-0.9
			C118.5,75.8,119.8,74.2,122.2,73.6z M84.4,95.1c0-1.2-1.1-1.7-1.9-2.3c-1.2-1-1.6-2.4-2-3.8c-0.3-1.4,0.9-1.3,1.5-1.8
			c0.4-0.2,0.3-0.6,0.2-1c-0.1-1.7,0.3-3.3,0.1-5c-0.2-1-0.1-2,0.7-2.7c1.7-1.5,1.2-3.5,0.6-5c-0.5-1.3-0.3-1.7,0.4-2.6
			c1.5-2,0.8-5.2-1.5-6.4c-3.4-1.7-6.8-4-11-2C70.6,63,69,62.7,68.9,64c-0.1,1.6-1.4,3.5,0.8,4.8c1.2,0.7,2,1.9,2.3,3.4
			c0.2,0.8,0,1.6-0.6,2.1c-0.8,0.6-1.3-0.1-1.8-0.4c-0.5-0.3-0.9-0.9-1.6-1c-0.6-0.1-1.1,0.1-1.4,0.6c-0.4,0.8,0.1,1,0.7,1.1
			c1.1,0.3,0.9,1.2,0.6,1.8c-0.5,1.1-1.3,1.8-2.5,2c-2.1,0.4-3.9-0.1-5.4-1.5c-0.4-0.4-0.9-0.8-1.5-0.5c-0.6,0.3-0.5,0.9-0.6,1.5
			c0,0.7,0.1,1.4,0.4,2c0.3,0.6,0.1,1.2-0.4,1.7c-3.7,3.9-6.5,8.8-12,10.7c-0.3,0.1-0.5,0.2-0.7,0.3c0.7,1,1.5,0.9,2.2,0.9
			c4.1-0.1,8-1,11.3-3.6c0.5-0.4,1-1.1,1.8-0.7c0.7,0.3,0.4,1.1,0.5,1.7c0.1,0.5-0.3,1.2,0.4,1.5c0.6,0.2,0.9-0.2,1.2-0.6
			c1.3-1.3,1.8-0.4,2,0.8c0.4,2.1,0.3,4.3-0.3,6.4c-0.3,1.1-0.6,2.2-0.9,3.3c3.1-2.7,5.4-5.9,6.9-9.6c0.4-0.8,0-2.3,1.2-2.4
			c1.2-0.1,1.3,1.3,1.7,2.1c0.7,1.2,1.2,0.8,1.7-0.1c0.4-0.9,0.3-2,1-2.9C80.4,94.3,81.5,95.1,84.4,95.1z M44.1,133.7
			c-0.6,0-1.1-0.1-1.7,0c-0.8,0.1-1.8,0.3-2,1.2c-0.1,0.9,1,0.8,1.5,1.2c0.7,0.4,1.7,0.4,2,1.3c0.6,2.1,2.3,2.8,4.2,1.8
			c2.5-1.3,5.9-0.3,7.1,2.2c0.3,0.7,0.8,1.6,1.4,0.4c1.7-3.5,4.6-3.7,7.8-3.2c2.9,0.5,3.8-1.7,5.1-3.5c1-1.5-0.3-2.4-1.1-3.4
			c-0.1-0.2-0.3-0.3-0.4-0.5c-0.6-1.2,0.1-3.8,1.3-4.2c1.8-0.6,1.6,1.2,2.1,2.1c0,0.1,0,0.1,0.1,0.2c0.3,0.6,0.5,1.5,1.4,1.3
			c0.9-0.2,0.5-1.1,0.5-1.6c-0.1-3.2,0.7-6,3.1-8.1c1.3-1.2,1.7-2.7,1.9-4.3c0.3-3.3-1.6-4.9-4.6-3.9c-1.7,0.6-3.3,0.8-5.1,0.9
			c-4.1,0.3-8.3,0.3-11.1,4.2c-0.1,0.1-0.2,0.2-0.3,0.2c-3,0-5.2,2.2-7.9,3c-0.7,0.2-2.1,0-1.9,1.1c0.2,0.9,1.4,0.5,2.2,0.5
			c0.5,0,1-0.1,1.5-0.1c0.6-0.1,1.2,0.1,1.3,0.7c0.3,1.2,0.9,1.4,2,0.9c0.4-0.2,1,0,1.1,0.4c0.7,2.4,2.9,3.5,4.4,5.1
			c0.7,0.7,1.1,1.6,0.6,2.7c-0.5,1-1.5,1.3-2.5,1.1C53.4,133.1,48.8,134.8,44.1,133.7z M34.8,82.9c1.7-0.1,1.7-0.1,3.8-1.4
			c1.1-0.8,1.9-1,2,0.8c0,1.7,0.8,1.9,2.2,1.2c1.5-0.7,2.6-0.1,3.4,1.2c0.5,0.7,0.7,1.5,1.1,2.2c1.1,2,1.9,2.2,3.4,0.5
			c1.4-1.5,2.6-3.1,4-4.6c1.1-1.2,1-1.8-0.7-2.4c-5.7-2-10.6-5.2-14.5-9.9c-2.1-2.6-5.1-4.1-7.3-6.6c-0.5-0.6-1.6-1.1-2.4-0.6
			c-0.8,0.5-0.1,1.4-0.1,2.1c0,1.3,0.9,1.5,1.8,1.9c1.6,0.6,1.7,1.5,0.3,2.5c-0.5,0.4-1.1,0.7-1.5,1.1c-0.4,0.3-0.6,1-0.1,1.2
			c1.1,0.5,2.1,1.9,3.6,0.8c1.1-0.8,1.9-0.1,2.4,0.7c1.3,1.9,1.7,4,0.5,6.1C36.2,80.7,35.6,81.7,34.8,82.9z M63.1,96
			c0.2-1.6-0.2-2.5-2.1-1.7c-0.5,0.2-1.2,0.2-1.5-0.4c-1.2-2.8-2.5-1.1-3.7,0c-3.1,2.9-6.1,5.7-10,7.4c-3.2,1.4-6.6,2.6-9.9,3.9
			c-1.4,0.5-2.8,0.9-3.9,1.9c-0.5,0.5-1.5,1.3-0.2,2c1.3,0.6,2.7,1,3.7-0.5c0.9-1.4,1.5-1.6,2.8-0.2c1.3,1.6,2.3,1.4,3.2-0.5
			c0.4-0.9,1.1-1.4,2.1-1.5c0.8-0.1,1.7-0.1,2.4-0.3c2.6-0.7,2.7-0.7,2.8,2c0,0.5-0.3,1.3,0.4,1.5c0.7,0.2,1.1-0.4,1.5-0.9
			c0.9-1.2,1.4-2.5,2.1-3.8c0.5-0.9,0.9-2.1,2.3-1c0.9,0.7,1.4-0.1,1.8-0.8c0.6-1,1.4-1.8,2.7-1.6c2,0.3,2.7-0.9,3-2.6
			C62.8,97.9,62.9,96.9,63.1,96z M68.7,71.7c-0.5-2.4-2.5-3.2-4.2-4.4c-1.4-1-2.6-2.1-2.5-4c0.1-0.6,0.5-1.5-0.6-1.6
			c-1-0.1-1.5,0.6-1.7,1.5c-0.3,1.2-0.4,2.5,0.7,3.3C63.2,68.2,66,70,68.7,71.7z M34,104.3c1.2,0,2.3-0.5,2.3-1
			c0.1-0.7-2-2.4-2.9-2.4c-1,0-1,0.7-1,1.4C32.4,103.4,32.6,104.3,34,104.3z M45.9,132.4c0.2,0,1.1,0,1-0.6c-0.3-1.3-1.4-2-2.8-2.2
			c-0.6-0.1-1.1,0.2-1,0.9C43.2,132.1,44.3,132.4,45.9,132.4z M36.6,64.2c-0.1-0.8-0.5-1.7-1.4-1.9c-0.8-0.1-0.7,0.7-0.7,1.2
			c0,1,0.5,1.8,1.5,1.9C36.7,65.5,36.6,64.8,36.6,64.2z"/>
		<path class="st3" d="M87.7,40.6c-2,0-4.2-0.4-6,0.1c-3.1,0.9-6,0.7-9.2,0c-3.2-0.6-6.5-0.1-9.8,0c-3.5,0.1-4.2-0.5-4.1-4
			c0-1.6-0.3-2.4-2.1-2.4c-1.5,0-3-0.6-2.9-2.6c0.1-1.9,1.4-2.4,3.1-2.3c1.5,0.1,2-0.6,1.9-2c-0.1-2.2,0-4.3-0.1-6.5
			c0-1.2-0.5-2-1.9-2c-1.6,0-2.7-0.8-2.6-2.5c0.1-1.6,1.2-2.3,2.7-2.2c1.5,0.1,2-0.7,1.9-2.1c0-0.7,0-1.4,0.1-2.1
			c0.2-1.6,1.1-2.4,2.6-2.4c4.3,0.1,8.7-0.2,12.9,0.5c2.4,0.4,4.4-0.1,6.6-0.4c4.9-0.7,9.8,0.1,14.6-0.1c1.1,0,1.8,0.7,1.7,2
			c0,0.8,0,1.7,0,2.5c0,1,0.4,1.7,1.6,1.8c1.8,0.2,2.9,1.1,2.8,3c-0.1,1.9-1.4,2.2-2.9,2.3C97.3,19.3,97,19.9,97,21
			c0,2.2,0,4.5,0,6.7c0,1.1,0.5,1.6,1.6,1.7c1.6,0.1,2.7,0.9,2.7,2.6c0,1.6-1.3,2.2-2.5,2.3c-1.6,0.1-1.7,1.1-1.7,2.3
			c-0.2,4.1-0.2,4.1-4.3,4.1C91,40.7,89.3,40.7,87.7,40.6C87.7,40.6,87.7,40.6,87.7,40.6z M93.6,10.8c1.2,0.6,1,1.7,1,2.7
			c0,7-0.1,14.1,0,21.1c0,1.9-0.6,2.6-2.5,2.6c-3.3,0-6.7,0.1-10,0.2c-0.8,0-1.6,0.1-2,0.9c0.4,0.5,0.8,0.4,1.2,0.4
			c4,0.1,8.1,0.1,12.1,0.1c2.3,0,2.6-0.3,2.4-2.7c0-0.4,0-0.8-0.1-1.3c-0.2-1.6,0.5-2.4,2.1-2.3c0.9,0,2,0,1.9-1.2
			c-0.1-1.2-1.2-1-2-0.9c-1.7,0.3-2.1-0.5-2.1-2c0-2.7,0.1-5.4-0.1-8.2c-0.1-2,0.3-3.2,2.7-2.8c0.6,0.1,1.5,0.1,1.6-0.9
			c0.1-1.1-0.7-1.4-1.5-1.3c-2.6,0.3-2.8-1.3-2.8-3.2c0-0.5,0-1,0-1.5c0-0.7,0-1.3-0.8-1.5c-0.5-0.2-1-0.2-1.4,0.1
			C92.7,9.8,93.9,10.3,93.6,10.8c-1.1,0.1-1.6,0.5-1.6,1.8c0,5.6,0,11.1,0,16.7c0,1.4,0.2,2.8,0.3,4.1c0,0.6-0.1,1.6,0.7,1.5
			c0.9-0.1,0.6-1.1,0.6-1.7C93.6,25.8,93.6,18.3,93.6,10.8z M77.7,22.4C77.7,22.4,77.7,22.4,77.7,22.4c-0.1,3.6-0.1,7.1-0.1,10.7
			c0,0.7-0.1,1.5,1.1,1.2c2.5-0.8,5.1-0.4,7.7-0.4c4.1,0,4.4,0,4.5-4c0.2-6.4,0.1-12.8,0.2-19.2c0-0.7-0.1-1.3-1-1.3
			c-3.3,0.1-6.7-0.4-10,0.1c-1.5,0.2-2.4,1-2.3,2.8C77.8,15.5,77.7,19,77.7,22.4z M67.1,14.8c1.5-0.4,3.1-0.2,4.6-0.3
			c1.7,0,3.2,0.4,3.8,2.3c0.6,1.8-0.3,2.9-1.6,3.9c-0.4,0.3-1.2,0.4-0.8,1.2c0.6,1.2,1.1,2.4,2.2,3.3c0.6,0.5,1.2,0.8,1.3-0.5
			c0.4-4.2,0.2-8.4,0.2-12.5c0-1.6-0.8-2.6-2.5-2.8c-2.5-0.4-5-0.1-7.5-0.2c-1.2-0.1-1.7,0.2-1.7,1.6c0.1,7.1,0.1,14.1,0,21.2
			c0,1.3,0.5,1.7,1.6,1.8c3,0.3,6-0.3,8.9,0.7c0.4,0.1,0.9,0,0.8-0.6c-0.2-1.9,0.6-3.9,0.1-5.8c-0.1-0.5,0-1.2-0.9-1.1
			c-1.7,0.2-2.4-1.1-3.2-2.2c-0.6-0.8-0.9-1.9-2-2.3c-0.9,1.5-0.3,2.9,0.3,4.4c-0.8,0-1.4,0-2.1,0c-1.3,0-1.3-0.1-1-1.6
			C68.2,21.8,69.3,18.3,67.1,14.8z M62.9,9.5c-1.9-0.6-2.7-0.2-2.7,1.5c0,0.6-0.1,1.1-0.1,1.7c0.1,1.7-0.5,2.7-2.4,2.5
			c-0.9-0.1-2.1,0.1-2.1,1.2c0,1.2,1.2,0.9,2,1c2,0.1,2.6,1.1,2.5,3c-0.2,2.6-0.3,5.2-0.2,7.7c0.1,2-0.6,2.8-2.6,2.7
			c-0.9-0.1-2.1-0.1-2.1,1.1c0,1.4,1.3,1.1,2.1,1c1.9-0.2,2.6,0.7,2.8,2.4c0.3,3.4,0.4,3.4,3.9,3.6c0.3,0,0.6,0.1,0.8,0.1
			c3.2-0.1,6.3,0.3,9.6-0.3c-0.6-1.1-1.5-1.1-2.3-1.1c-2.8-0.1-5.6-0.3-8.3-0.1c-2.1,0.1-2.6-0.7-2.6-2.7c0-5.7,0-11.4,0-17.1
			C61.1,14.9,59.7,11.8,62.9,9.5z M62,24.7c0.1,0,0.2,0,0.2,0c0,3,0,6,0,9c0,0.4-0.2,1.1,0.5,1.1c0.5,0,0.9-0.4,1-0.9
			c0.1-0.3,0.1-0.7,0.1-1c0.1-6.8,0.2-13.6,0.3-20.4c0-0.7,0.4-1.8-0.6-2c-1-0.1-1.4,1-1.5,1.9C62,13.1,62,13.8,62,14.5
			C62,17.9,62,21.3,62,24.7z M85.6,34.8c0-0.1,0-0.2,0-0.2c-2,0.1-4,0.2-6,0.4c-0.6,0.1-1.5,0.4-1.4,1.3c0.1,1.1,1.1,0.7,1.6,0.6
			c3.6-0.7,7.2-0.3,10.8-0.4c0.6,0,1.5,0.4,1.6-0.4c0.1-0.8-0.7-1.2-1.6-1.2C88.9,34.8,87.3,34.8,85.6,34.8z M69,34.7
			c-1.3,0-2.6,0-3.9,0c-0.8,0-1.3,0.6-1.3,1.1c0,0.7,0.8,0.6,1.3,0.6c3.2,0.3,6.4-0.3,9.5,0.6c0.8,0.2,1.2-0.1,1.4-0.7
			c0.2-0.7-0.4-0.9-1-1C73,34.7,71,34.8,69,34.7z M69.9,17.4c1,0.8-1,3.1,1.6,3.2c1.7,0.1,2.2-1.1,2.3-2.4c0.2-1.7-0.9-2.8-2.4-2.8
			C70.1,15.4,70,16.3,69.9,17.4z M77.1,37.3c-0.9,0.2-1.5,0.8-1.6,1.8c0,0.9,0.8,1.1,1.5,1.1c1,0,1.5-0.7,1.4-1.6
			C78.4,37.8,78,37.3,77.1,37.3z"/>
		<path class="st4" d="M136.2,40.6c-1.8,0-3.6,0-5.4,0c-0.3,0-0.6-0.1-0.8,0c-5.4,2.2-10.7-1.1-16.1-0.2c-1.5,0.2-3.1-0.2-4.6-0.1
			c-1.8,0.1-2.4-0.7-2.3-2.4c0-0.6,0-1.1,0-1.7c0.1-1.4-0.5-2.2-1.8-2.2c-1.6-0.1-2.5-0.9-2.6-2.4c0-1.7,1.1-2.3,2.6-2.4
			c1.2,0,1.5-0.6,1.5-1.7c-0.1-2.3-0.1-4.6,0-6.9c0-1.4-0.9-1.6-1.9-1.6c-1.6,0-2.4-0.7-2.5-2.2c-0.1-1.4,0.6-2.5,2.1-2.6
			c2.4-0.2,2.7-1.5,2.7-3.5c-0.1-3.1,0-3.1,3.1-3.1c3.8,0.1,7.7-0.1,11.5,0.4c2.8,0.3,5.3,0.3,8.1-0.2c4.1-0.7,8.3-0.3,12.5-0.1
			c2.1,0.1,2.9,1.2,2.7,3.1c-0.2,1.9,0,3.2,2.4,3.3c1.4,0,2.1,1.2,2,2.5c-0.1,1.2-0.7,2.4-2.1,2.5c-2.1,0.1-2.4,1.4-2.3,3.1
			c0.1,1.9,0.3,3.8,0.3,5.6c0,1.2,0.8,1.4,1.6,1.5c1.4,0.3,2.3,1.1,2.3,2.5c0.1,1.6-1.1,2.2-2.4,2.4c-1.7,0.2-1.5,1.3-1.5,2.4
			c0,4-0.1,4-4.1,4.1C139.4,40.7,137.8,40.7,136.2,40.6C136.2,40.6,136.2,40.6,136.2,40.6z M141.4,11.3c0.5,0.3,0.5,0.8,0.5,1.3
			c0.1,7.7,0.1,15.3,0.2,23c0,1.5-0.7,1.9-2.1,1.9c-2.6,0-5.2,0-7.8,0c-1.1,0-2.2,0.1-3.1,0.9c0.6,0.7,1.4,0.3,2,0.4
			c2.7,0.1,5.4,0,8.2,0.1c3.8,0.2,3.9,0.3,4-3.6c0-1.8,0.5-3,2.6-2.7c0.7,0.1,1.2-0.3,1.3-1.1c0.1-1-0.7-1.1-1.4-1.2
			c-0.3-0.1-0.7,0.1-1,0.2c-1.1,0.2-1.6,0.1-1.4-1.4c0.2-3,0.2-6.1,0.1-9.2c-0.1-1.7,0.3-2.5,2.1-2.5c0.9,0,1.8-0.2,1.8-1.3
			c0-1.2-1.1-1.2-1.9-1.1c-2.1,0.3-2.3-0.9-2.3-2.5c0-0.8,0-1.7,0-2.5c-0.1-1-0.9-1.2-1.7-1c-1.1,0.3-0.5,0.9-0.3,1.4
			C141.3,10.8,141.3,11.1,141.4,11.3c-0.7,0.2-0.7-1.3-1.6-0.7c-0.5,0.3-0.3,0.9-0.3,1.4c0,6.9,0,13.9,0,20.8c0,1,0.1,2.3,1.3,2.3
			c1-0.1,0.5-1.4,0.5-2.1C141.6,25.7,140.6,18.5,141.4,11.3z M126.4,26.8c0,1.5-0.1,3.1-0.1,4.6c0,3.3,0,3.2,3,2.6
			c0.7-0.1,1.4-0.1,2.1-0.1c1.7,0,3.3,0,5,0.1c1.5,0,2.1-0.5,2.1-2.1c-0.1-2.5,0.1-5,0.1-7.5c0-4.5,0-8.9,0-13.4
			c0-1.3-0.4-1.8-1.8-1.8c-2.6,0.1-5.1,0-7.7,0.1c-1.9,0.1-2.9,1.1-2.8,3.1c0.4,5,2.1,9.6,4.2,14.3c-1.1,0-2.2,0.4-3.3-0.2
			c0.2-0.4,0.4-0.7,0.5-1.1c0.1-0.8,0.1-1.9-0.7-1.9c-1-0.1-0.5,1-0.6,1.6C126.3,25.6,126.4,26.2,126.4,26.8z M121.9,17.7
			c-0.2-0.4-0.3-0.7-0.4-1c-0.2-0.7-0.5-1.5-1.3-1.3c-0.9,0.2-0.5,1-0.5,1.6c-0.1,2.2-0.2,4.3-0.2,6.5c0,1,0,2.2,1.2,2.3
			c1,0.1,1.7-0.8,2-1.8c0.5-1.7,1.1-3.5,1.6-5.2c0.6-2.1,1.3-4.1,1.1-6.3c-0.1-1.8-0.8-2.8-2.8-2.9c-2.6-0.2-5.1-0.2-7.7-0.3
			c-1.4-0.1-1.8,0.3-1.8,1.7c0.1,7,0,14.1,0,21.1c0,1.4,0.5,1.9,2,1.8c3-0.1,6-0.3,8.9,0.5c0.6,0.2,1.2,0.2,1.2-0.6
			c0.2-3.3,0.5-6.5,0.1-9.8c-0.1-0.4,0-0.9-0.6-0.9c-0.6-0.1-0.8,0.3-1.1,0.8c-0.7,1.2,0.5,1.8,1.4,3.1c-3.1-0.6-5.7-0.3-8.4-0.7
			c1.1-0.6,1.2-1.6,1.2-2.6c0.1-2.2,0.1-4.5,0.2-6.7c0-0.5,0.2-1-0.3-1.3c-0.6-0.3-1,0-1.5,0.4c-0.3,0.3-0.5,0.9-1.3,0.6
			c0.6-0.8-0.7-2.7,1.5-2.4c1.8,0.2,3.6,0.3,5.4,0c0.6-0.1,1-0.1,0.9,0.6C122.5,15.7,122.8,16.8,121.9,17.7z M123.3,38.8
			c-2.8-1.6-5.7-1.9-10.9-1.4c-2.7,0.3-3,0-3.1-2.7c-0.1-7.2-0.1-14.4-0.2-21.5c0-1,0.1-1.9,0.9-2.7c0.4-0.4,0.9-1,0.1-1.3
			c-0.6-0.3-1.5-0.3-1.8,0.5c-0.2,0.6-0.2,1.2-0.2,1.8c-0.1,3.4,0,3.6-2.8,3.7c-0.7,0-1.9,0-1.8,1.3c0.1,1.2,1.1,1.1,1.9,1
			c1.7-0.2,2.4,0.5,2.4,2.2c-0.1,2.9-0.1,5.7,0,8.6c0.1,1.6-0.5,2.3-2.2,2.2c-0.7-0.1-1.7-0.1-1.7,1c0,1.1,0.9,1.2,1.7,1.1
			c1.8-0.1,2.3,0.9,2.3,2.4c0,0.6,0,1.1,0,1.7c-0.1,1.4,0.5,2.1,1.9,2C114.2,38.8,118.5,38.8,123.3,38.8z M112.1,22.8
			C112.1,22.8,112.1,22.8,112.1,22.8c0-3.6,0-7.3,0-10.9c0-0.5,0.1-1.3-0.6-1.4c-0.6,0-1,0.7-1,1.2c-0.2,1.2-0.2,2.5-0.3,3.7
			c-0.4,6.3,0.3,12.7,0.1,19c0,0.3,0,0.7,0.4,0.9c0.4,0.1,0.6-0.2,0.9-0.4c0.7-0.5,0.5-1.2,0.5-1.9
			C112.1,29.7,112.1,26.3,112.1,22.8z M112,36.3c3.5,0.6,6.9-0.3,10.3,0.7c0.9,0.3,2,0.4,2.3-0.7c0.2-1.1-1.1-1.2-1.8-1.2
			c-3-0.2-5.9-0.2-8.9-0.2C113,34.8,112.4,35.2,112,36.3z M140.2,36.4c-0.4-0.8-0.9-1.3-1.8-1.3c-2.5,0-5-0.2-7.5-0.2
			c-0.8,0-1.5,0.2-2.3,0.3c-0.6,0.1-1.3,0.4-1.1,1.2c0.1,0.9,0.7,0.7,1.4,0.6c2.5-0.4,5.1-0.5,7.7-0.2
			C137.8,36.9,138.9,36.8,140.2,36.4z M127.3,38.3c0-0.6-0.3-1.4-1.4-1.4c-1.1,0-1.5,0.8-1.6,1.8c0,1,0.6,1.5,1.6,1.5
			C127.1,40.2,127.4,39.5,127.3,38.3z M126.5,21.1c-0.3-0.9-0.1-2.5-1.2-2.5c-1.1,0-0.8,1.5-1,2.4c-0.2,1,0.6,1,1.2,1
			C126.1,22.1,126.7,21.9,126.5,21.1z"/>
		<path class="st3" d="M39.3,40.2c-1.9,0-3.9-0.4-5.6,0.1c-3.7,1.1-7.2,0.7-11,0c-3.5-0.6-7.2-0.3-10.8-0.4c-1.6,0-2.2-0.8-2.1-2.2
			c0.2-2,0.1-3.6-2.6-3.8c-1.5-0.1-1.7-1.4-1.6-2.7c0.1-1.4,0.9-2.3,2.2-2.3c1.6,0,2-0.7,1.9-2.2c-0.1-2,0-4,0-6.1
			c0-1.3-0.5-2.1-1.9-2.2c-1.4-0.1-2.4-0.9-2.6-2.3c-0.2-1.6,0.5-2.7,2.2-2.6c2,0.1,2.6-0.7,2.5-2.5c0-0.5,0.2-1.1,0.2-1.7
			c0-1.5,0.9-2,2.1-2c4.9,0.2,9.9-0.5,14.8,0.9c0.4,0.1,1,0.1,1.4,0c3.1-1,6.2-0.9,9.3-0.7c2.7,0.2,5.3,0.3,7.9,0.2
			c1.7,0,2.5,0.5,2.3,2.3c-0.1,0.7,0,1.4,0,2.1c0.1,1,0.4,1.6,1.7,1.6c1.5,0,2.8,0.7,2.7,2.5c0,1.8-1.2,2.6-2.9,2.6
			c-1.2,0-1.6,0.6-1.6,1.7c0,2.3,0,4.6,0,6.9c0,1.3,0.5,1.8,1.7,1.7c1.8,0,2.9,0.6,2.9,2.7c-0.1,2.1-1.3,2.6-3,2.5
			c-1.5-0.1-1.8,0.6-1.7,1.9c0.3,5-0.1,3.9-4,4C42.4,40.3,40.9,40.3,39.3,40.2C39.3,40.3,39.3,40.2,39.3,40.2z M42.9,34.8
			c0.9,0,1.7,0,1.5-1.4c-0.1-1,0.1-2.1,0.1-3.1c0-6.5,0-12.9,0.1-19.4c0.6-0.5,0.7,0.1,0.8,0.4c0.2,1.1,0.4,2.2,0.3,3.3
			c-0.4,4.7-0.1,9.3-0.2,14c0,2.2,0.4,4.4,0.1,6.7c-0.2,1.5-0.8,2-2.3,2c-3.1-0.1-6.3,0-9.4,0c-0.9,0-1.8,0-2.7,1.4
			c4.8,0,9.1-0.1,13.5,0c1.6,0,2-0.6,2-2.1c0-3.4,0.1-3.4,3.3-3.9c0.7-0.1,1.2-0.3,1.3-1.1c0-0.7-0.4-1-1-1.1
			c-0.5-0.1-1.1-0.2-1.6-0.2c-1.4,0.1-1.9-0.5-1.8-1.8c0.1-2.7,0.1-5.4,0-8.2c-0.1-1.9,0.1-3.2,2.5-3c0.6,0.1,1.7-0.1,1.6-1.2
			c0-1.2-1-1-1.7-1c-1.9,0.1-2.7-0.8-2.6-2.7c0-0.6,0-1.1,0-1.7c0.1-1-0.2-1.8-1.4-1.9c-1.9,0,0,1.4-0.7,1.8
			c-1.5-0.4-1.6,0.4-1.6,1.6C43,19.9,43,27.4,42.9,34.8c-3.8-0.2-7.6-0.2-11.5,0c-0.6,0-1.4,0.1-1.4,0.9c0,0.5,0.5,0.8,1,0.8
			c3.7,0,7.4-0.1,11.1-0.1C43.6,36.4,43.2,35.5,42.9,34.8z M11.5,13.4c-0.4,1.6-1.7,1.5-3,1.6c-0.6,0-1.6-0.1-1.6,0.9
			c0,1,0.9,0.8,1.6,0.8c1.9,0,2.7,0.8,2.7,2.8c-0.1,2.4,0,4.7,0.2,7.1c0.2,2.4-0.4,3.8-3,3.9c-0.6,0-1.4,0.3-1.4,1
			c0,0.9,0.9,1,1.5,1.1c3,0.7,3,0.6,2.7,3.7c-0.1,1-0.1,2.1,1.3,2.1c3.9,0.1,7.8,0.1,11.7,0.2c0.4,0,1,0,1-0.5
			c0-0.7-0.6-0.6-1.1-0.7c-2.6-0.3-5.3-0.5-7.9-0.2c-3.4,0.4-3.8,0.1-3.9-3.3c0-0.6,0-1.3,0-1.9c-0.1-6.2-0.2-12.4-0.2-18.6
			c0-1,0-2.1,0.8-2.9c0.3-0.3,1-0.6,0.6-1.3c-0.2-0.4-0.7-0.3-1.1-0.2c-0.7,0.1-1.1,0.5-1,1.3C11.5,11.4,11.5,12.4,11.5,13.4z
			 M41.9,21.4c0-3.5,0-7,0-10.5c0-0.7,0.3-1.7-0.9-1.7c-3.2,0.1-6.4-0.5-9.6-0.1c-1.5,0.2-2.7,0.8-2.7,2.6c0,7,0,14.1,0,21.1
			c0,0.8,0.2,1.5,1.2,1.2c3.5-0.8,7.1-0.3,10.6-0.5c1.1-0.1,1.4-0.4,1.4-1.5C41.9,28.5,41.9,24.9,41.9,21.4z M20.6,9
			c-0.6,0-1.3,0.1-1.9,0C16.7,8.7,16,9.4,16,11.6c0.2,6.1,0,12.2-0.3,18.4c-0.2,3.1,0.4,3.6,3.5,3.6c2.2,0,4.5-0.1,6.6,0.5
			c1.3,0.4,1.6-0.1,1.7-1.2c0-0.7,0.1-1.4,0.1-2.1c-0.1-5.6,0.1-11.3-0.2-16.9c-0.2-4.1-0.7-4.7-4.8-4.8C22,9,21.3,9,20.6,9z
			 M14.7,10.5c-1.1,0.5-1.5,1.1-1.5,1.9c0.1,7,0.1,14,0.3,21c0,0.5-0.2,1.5,0.8,1.3c0.8-0.1,0.6-0.9,0.6-1.5c0-2.9,0-5.8,0.1-8.8
			C15.2,19.9,15.3,15.3,14.7,10.5z M24.6,36.4c1.2,0.2,1.9,0.2,2-0.6c0.1-0.9-0.8-0.6-1.2-0.7c-2.8-0.6-5.7-0.4-8.5-0.4
			c-0.6,0-1.2,0.2-1.2,0.9c0,0.8,0.7,0.4,1.1,0.5C19.6,36.4,22.4,35.9,24.6,36.4z M28.4,40c1.2-0.1,1.8-0.9,1.7-2.1
			c0-1-0.8-1.8-1.7-1.7c-0.9,0.1-1.7,1-1.8,2.1C26.6,39.3,27.1,40,28.4,40z"/>
		<path class="st5" d="M122.2,73.6c-2.4,0.6-3.7,2.2-5,3.6c-1.5,1.6-3.2,2.2-5.2,0.9c-1.1-0.8-2.3-0.7-3.6-0.1
			c-4.6,2.5-9,5.2-10.4,10.8c-0.5,2-0.5,3.9,0.6,5.6c0.7,1,1.5,1.2,2-0.1c1.4-4,5.2-4.1,8.5-5.9c-0.4,2.2-1.1,3.8-2.8,4.8
			c-1.8,1.1-3,2.6-3.3,4.8c-0.1,0.9-0.1,1.8,0.7,2.2c0.8,0.5,1.5-0.3,1.9-0.8c2.8-3,6.4-3.3,10.1-3.4c-0.1,1.2-1,1.2-1.6,1.5
			c-2.6,1.2-4.6,2.9-5.8,5.4c-0.2,0.5-0.6,1-0.2,1.5c0.4,0.5,1,0.3,1.6,0.2c0.1,0,0.1-0.1,0.2-0.1c1.1-0.3,2.5-1.3,3.1-0.4
			c0.7,1.1-1.2,1.3-1.8,2.1c-1.2,1.6-1.2,3.5-1.5,5.4c-0.3,2-1,3.5-3.1,3.9c-0.9,0.2-1.2,0.8-1.6,1.5c-1.8,3.6-6.3,5.2-10,3.5
			c-0.4-0.2-0.9-0.5-1.3-0.7c-0.6-0.2-1.2-0.4-1.7,0.2c-0.5,0.5,0,1.1,0.2,1.5c1.6,2.8,3.8,5,7.1,5.7c1.3,0.3,2.6,0.6,3.9,0.9
			c0.6,0.1,1.2,0.4,1.1,1.1c-0.1,0.7-0.8,0.4-1.2,0.4c-1.9,0.1-3.7,0.5-5.6,0c-0.4-0.1-0.8-0.4-1.1,0.1c-0.3,0.5,0,1,0.3,1.3
			c1.4,1.5,3.1,2.7,5,3.2c1.8,0.5,3.1,1.3,2.9,3.4c0,0.5,0.3,1.1,0.4,1.6c0.4,1.4,0.6,2.8-0.5,4.1c-0.4,0.5-0.9,1.3-0.8,1.9
			c0.4,2-0.5,3-2.2,3.8c-1.4,0.7-2.5,1.8-3,3.5c-0.5,1.7-2.3,1.3-3.6,1.6c-1,0.2-1-0.7-1-1.4c-0.1-0.7-0.6-0.7-1.1-0.5
			c-0.4,0.1-0.7,0.4-1.1,0.6c-1,0.8-1.8,0.2-2.7-0.3c-0.5-0.3-0.9-0.8-0.6-1.4c0.4-0.8,1.1-1.2,2-1.3c1.6-0.1,3.2-0.4,4.7-1.1
			c2.7-1.2,3.5-2.7,3-5.6c-0.7-4.3-1.7-5.2-6.2-5.5c-1.2-0.1-2.4-0.2-3.3-1.1c-0.5-0.4-1-0.5-1.5-0.1c-0.2,0.1-0.4,0.4-0.5,0.3
			c-2.7-1.7-2.8,1.2-3.9,2.2c-0.3,0.3-0.5,0.7-0.8,0.9c-1,0.8-2.3,2.1-3.2,1.5c-1-0.7,0.4-1.9,0.8-2.9c1-2.4,1.3-5,2.6-7.2
			c0.5-0.8,0.1-1.8-0.2-2.6c-1.4-3.6-1.8-7.2-1.2-11.1c1.2-7.4-4.8-13.5-11.3-14.3c-0.9-0.1-2-0.1-2.4-1c-0.4-1,0.3-1.7,1-2.3
			c1.3-1.4,2.2-3.1,3.2-4.6c0.6-0.8,0.9-1.6,1.9-0.4c1,1.2,1.8,0.2,2.3-0.6c1-1.7,1.9-1.6,3.5-0.4c2.2,1.5,3,3.4,3.7,5.7
			c1.7,5.9,4.5,11.1,9.3,15.1c1.8,1.5,3.9,2.5,6.3,2.5c4,0.1,6.5-3,5.9-7c-0.4-2.7-1.9-4.9-3.4-7.1c-0.9-1.2-1.8-2.5-2.8-3.7
			c-5.3-6.9-2.9-13.7,2.2-18.2c3-2.7,6.6-4.6,10.3-6.4c2.3-1.1,4.5-2.3,6.4-4c1.6-1.5,2.9-3.2,2.9-5.6c0-0.5,0-1.2,0.5-1.3
			c0.6-0.1,0.9,0.5,1.1,1.1c0.3,1.2,0.7,2.4,0.2,3.5C120.3,70.9,119.9,72.4,122.2,73.6z"/>
		<path class="st5" d="M84.4,95.1c-2.9,0-3.9-0.8-8.4-5.9c-0.7,0.9-0.5,2-1,2.9c-0.5,0.9-1,1.4-1.7,0.1c-0.5-0.8-0.6-2.2-1.7-2.1
			c-1.2,0.1-0.8,1.6-1.2,2.4c-1.6,3.7-3.8,6.9-6.9,9.6c0.3-1.1,0.6-2.2,0.9-3.3c0.6-2.1,0.7-4.3,0.3-6.4c-0.2-1.2-0.7-2.1-2-0.8
			c-0.3,0.3-0.7,0.8-1.2,0.6c-0.7-0.3-0.4-1-0.4-1.5c-0.1-0.6,0.2-1.4-0.5-1.7c-0.8-0.4-1.3,0.3-1.8,0.7c-3.3,2.6-7.2,3.5-11.3,3.6
			c-0.7,0-1.4,0.2-2.2-0.9c0.2-0.1,0.5-0.2,0.7-0.3c5.5-1.9,8.3-6.8,12-10.7c0.5-0.5,0.7-1.1,0.4-1.7c-0.3-0.6-0.4-1.3-0.4-2
			c0-0.5-0.1-1.2,0.6-1.5c0.6-0.3,1.1,0.1,1.5,0.5c1.5,1.4,3.3,1.9,5.4,1.5c1.2-0.2,2.1-0.9,2.5-2c0.3-0.7,0.5-1.6-0.6-1.8
			c-0.6-0.2-1.1-0.3-0.7-1.1c0.3-0.6,0.8-0.7,1.4-0.6c0.7,0.1,1.1,0.6,1.6,1c0.5,0.4,1.1,1,1.8,0.4c0.7-0.5,0.8-1.3,0.6-2.1
			c-0.3-1.5-1.1-2.6-2.3-3.4c-2.2-1.3-0.9-3.2-0.8-4.8c0.1-1.3,1.8-1,2.7-1.5c4.2-2,7.5,0.3,11,2c2.3,1.1,3,4.4,1.5,6.4
			c-0.7,0.9-0.9,1.4-0.4,2.6c0.6,1.4,1.1,3.5-0.6,5c-0.8,0.7-0.9,1.7-0.7,2.7c0.3,1.7-0.2,3.3-0.1,5c0,0.3,0.1,0.7-0.2,1
			c-0.7,0.5-1.9,0.4-1.5,1.8c0.4,1.4,0.8,2.8,2,3.8C83.3,93.4,84.3,93.9,84.4,95.1z M71.5,79.6c0,2.6,0.9,3.6,2.2,2.6
			c2.1-1.6,3-4,3.7-6.5c0.1-0.4,0.1-0.9-0.4-1.1c-0.5-0.2-0.8,0.1-1,0.5c-0.6,0.9-1.2,1.9-1.8,2.8c-0.2,0.4-0.4,1-1.1,0.5
			C71.1,77,71.7,78.9,71.5,79.6z M76.1,67.8c1.5,0,2.1-0.4,2.1-1.2c-0.1-0.8-2.5-2.8-3.3-2.9c-1.4-0.1-1.4,1-1.4,1.8
			C73.4,67.4,74.9,67.6,76.1,67.8z M82.8,67.4c-0.9,0.2-1.1,1-1.2,1.8c-0.1,0.6,0.3,1.2,0.9,1.1c0.9-0.3,1.1-1.1,1.2-2
			C83.7,67.8,83.5,67.3,82.8,67.4z"/>
		<path class="st6" d="M44.1,133.7c4.6,1.1,9.3-0.6,13.9,0.1c1,0.1,2-0.1,2.5-1.1c0.5-1,0.1-2-0.6-2.7c-1.6-1.6-3.8-2.7-4.4-5.1
			c-0.1-0.4-0.7-0.6-1.1-0.4c-1.1,0.5-1.7,0.3-2-0.9c-0.2-0.6-0.7-0.8-1.3-0.7c-0.5,0-1,0.1-1.5,0.1c-0.8,0-2.1,0.3-2.2-0.5
			c-0.2-1.1,1.2-0.9,1.9-1.1c2.7-0.8,4.9-3,7.9-3c0.1,0,0.3-0.1,0.3-0.2c2.7-3.9,7-4,11.1-4.2c1.8-0.1,3.4-0.3,5.1-0.9
			c3-1,4.9,0.6,4.6,3.9c-0.2,1.6-0.6,3.1-1.9,4.3c-2.3,2.2-3.2,5-3.1,8.1c0,0.5,0.4,1.4-0.5,1.6c-0.9,0.2-1.1-0.7-1.4-1.3
			c0-0.1,0-0.1-0.1-0.2c-0.4-1-0.2-2.7-2.1-2.1c-1.2,0.4-1.9,3.1-1.3,4.2c0.1,0.2,0.2,0.3,0.4,0.5c0.8,1,2.1,1.9,1.1,3.4
			c-1.2,1.8-2.1,4-5.1,3.5c-3.2-0.6-6.1-0.3-7.8,3.2c-0.5,1.1-1,0.2-1.4-0.4c-1.2-2.5-4.6-3.6-7.1-2.2c-2,1.1-3.6,0.3-4.2-1.8
			c-0.3-0.9-1.3-0.9-2-1.3c-0.5-0.4-1.6-0.3-1.5-1.2c0.1-0.9,1.1-1.1,2-1.2C43,133.6,43.6,133.7,44.1,133.7z"/>
		<path class="st5" d="M34.8,82.9c0.7-1.2,1.4-2.2,2-3.2c1.2-2.1,0.7-4.2-0.5-6.1c-0.6-0.8-1.3-1.5-2.4-0.7
			c-1.5,1.1-2.5-0.3-3.6-0.8c-0.6-0.3-0.3-0.9,0.1-1.2c0.5-0.4,1-0.7,1.5-1.1c1.4-1,1.3-1.9-0.3-2.5c-1-0.4-1.8-0.6-1.8-1.9
			c0-0.7-0.7-1.6,0.1-2.1c0.8-0.5,1.9,0,2.4,0.6c2.2,2.5,5.2,4,7.3,6.6c3.8,4.8,8.8,7.9,14.5,9.9c1.7,0.6,1.8,1.2,0.7,2.4
			c-1.3,1.5-2.6,3.1-4,4.6c-1.5,1.7-2.3,1.5-3.4-0.5c-0.4-0.7-0.7-1.6-1.1-2.2c-0.8-1.2-1.9-1.9-3.4-1.2c-1.4,0.7-2.1,0.5-2.2-1.2
			c0-1.7-0.8-1.5-2-0.8C36.6,82.9,36.6,82.8,34.8,82.9z"/>
		<path class="st5" d="M63.1,96c-0.2,1-0.3,1.9-0.5,2.9c-0.3,1.7-0.9,2.9-3,2.6c-1.2-0.2-2.1,0.6-2.7,1.6c-0.4,0.7-1,1.4-1.8,0.8
			c-1.4-1.1-1.8,0.1-2.3,1c-0.7,1.3-1.2,2.7-2.1,3.8c-0.4,0.5-0.8,1.1-1.5,0.9c-0.7-0.2-0.4-1-0.4-1.5c-0.1-2.7-0.2-2.7-2.8-2
			c-0.8,0.2-1.6,0.2-2.4,0.3c-1,0.1-1.7,0.5-2.1,1.5c-0.8,1.8-1.8,2-3.2,0.5c-1.2-1.4-1.9-1.2-2.8,0.2c-1,1.5-2.4,1.2-3.7,0.5
			c-1.3-0.6-0.3-1.5,0.2-2c1.1-1,2.5-1.4,3.9-1.9c3.3-1.3,6.6-2.5,9.9-3.9c3.9-1.7,6.9-4.6,10-7.4c1.2-1.1,2.5-2.8,3.7,0
			c0.3,0.6,0.9,0.7,1.5,0.4C62.9,93.4,63.3,94.4,63.1,96z"/>
		<path class="st7" d="M68.7,71.7c-2.8-1.8-5.6-3.5-8.3-5.4c-1.1-0.8-1-2.1-0.7-3.3c0.2-0.9,0.7-1.6,1.7-1.5c1.1,0.1,0.7,1,0.6,1.6
			c-0.2,2,1.1,3,2.5,4C66.2,68.5,68.2,69.3,68.7,71.7z"/>
		<path class="st8" d="M34,104.3c-1.4,0.1-1.6-0.8-1.5-2c0-0.7,0-1.4,1-1.4c0.9,0,2.9,1.7,2.9,2.4C36.3,103.8,35.2,104.3,34,104.3z"
			/>
		<path class="st8" d="M45.9,132.4c-1.6,0-2.7-0.3-2.8-1.9c-0.1-0.8,0.4-1,1-0.9c1.3,0.2,2.5,0.9,2.8,2.2
			C47,132.4,46.1,132.4,45.9,132.4z"/>
		<path class="st7" d="M36.6,64.2c0,0.6,0.1,1.3-0.6,1.2c-1-0.1-1.6-0.8-1.5-1.9c0-0.5-0.1-1.3,0.7-1.2
			C36.1,62.5,36.5,63.4,36.6,64.2z"/>
		<path class="st9" d="M107,95.6c-0.1,0.1-0.3,0.2-0.4,0.3c0,0-0.1-0.1-0.1-0.1C106.7,95.7,106.8,95.6,107,95.6
			C107,95.5,107,95.6,107,95.6z"/>
		<path class="st10" d="M93.7,10.9c0.2-0.6-1-1-0.2-1.6c0.4-0.3,0.9-0.3,1.4-0.1c0.8,0.2,0.8,0.8,0.8,1.5c0,0.5,0,1,0,1.5
			c-0.1,1.9,0.2,3.5,2.8,3.2c0.7-0.1,1.6,0.2,1.5,1.3c-0.1,1-0.9,1-1.6,0.9c-2.4-0.4-2.8,0.8-2.7,2.8c0.2,2.7,0.1,5.4,0.1,8.2
			c0,1.5,0.4,2.3,2.1,2c0.8-0.1,1.9-0.3,2,0.9c0.1,1.3-1,1.3-1.9,1.2c-1.6-0.1-2.3,0.7-2.1,2.3c0.1,0.4,0,0.8,0.1,1.3
			c0.2,2.4-0.1,2.7-2.4,2.7c-4,0-8.1-0.1-12.1-0.1c-0.4,0-0.9,0.1-1.2-0.4c0.4-0.9,1.2-0.9,2-0.9c3.3-0.1,6.7-0.2,10-0.2
			c1.9,0,2.5-0.7,2.5-2.6c-0.1-7,0-14.1,0-21.1C94.6,12.6,94.8,11.4,93.7,10.9L93.7,10.9z"/>
		<path class="st7" d="M62.9,9.5c-3.2,2.3-1.9,5.5-1.9,8.1c0,5.7,0,11.4,0,17.1c0,2,0.6,2.7,2.6,2.7c2.8-0.1,5.6,0.1,8.3,0.1
			c0.8,0,1.7,0,2.3,1.1c-3.3,0.6-6.5,0.2-9.6,0.3c-0.3,0-0.6-0.1-0.8-0.1c-3.6-0.2-3.6-0.2-3.9-3.6c-0.2-1.7-0.9-2.7-2.8-2.4
			c-0.8,0.1-2.1,0.4-2.1-1c0-1.2,1.2-1.2,2.1-1.1c2,0.2,2.7-0.6,2.6-2.7c-0.1-2.6,0-5.1,0.2-7.7c0.1-1.9-0.5-2.9-2.5-3
			c-0.7,0-2,0.2-2-1c0-1.1,1.2-1.3,2.1-1.2c1.9,0.2,2.5-0.9,2.4-2.5c0-0.6,0.1-1.1,0.1-1.7C60.2,9.3,61,8.9,62.9,9.5z"/>
		<path class="st11" d="M62,24.7c0-3.4,0-6.8,0-10.2c0-0.7,0-1.4,0.1-2.1c0.1-0.9,0.5-2,1.5-1.9c1,0.1,0.6,1.3,0.6,2
			c-0.1,6.8-0.2,13.6-0.3,20.4c0,0.3,0,0.7-0.1,1c-0.1,0.5-0.5,0.9-1,0.9c-0.7,0-0.5-0.7-0.5-1.1c0-3,0-6,0-9
			C62.2,24.7,62.1,24.7,62,24.7z"/>
		<path class="st7" d="M93.6,10.8c0,7.5-0.1,15-0.1,22.5c0,0.6,0.4,1.6-0.6,1.7c-0.7,0-0.6-0.9-0.7-1.5c-0.1-1.4-0.3-2.8-0.3-4.1
			c0-5.6,0.1-11.1,0-16.7C92,11.3,92.5,10.9,93.6,10.8C93.7,10.9,93.6,10.8,93.6,10.8z"/>
		<path class="st12" d="M85.6,34.8c1.7,0,3.3,0,5,0c0.9,0,1.7,0.4,1.6,1.2c-0.1,0.8-1,0.4-1.6,0.4c-3.6,0.1-7.2-0.3-10.8,0.4
			c-0.6,0.1-1.5,0.5-1.6-0.6c-0.1-0.9,0.8-1.2,1.4-1.3c2-0.2,4-0.3,6-0.4C85.6,34.7,85.6,34.7,85.6,34.8z"/>
		<path class="st7" d="M69,34.7c2,0.1,4,0,6,0.5c0.6,0.2,1.2,0.3,1,1c-0.2,0.7-0.6,1-1.4,0.7c-3.1-0.9-6.3-0.4-9.5-0.6
			c-0.5,0-1.3,0.1-1.3-0.6c0-0.6,0.5-1.1,1.3-1.1C66.4,34.7,67.7,34.7,69,34.7z"/>
		<path class="st12" d="M69.9,17.4c0.1-1.1,0.2-1.9,1.5-1.9c1.5,0,2.5,1.1,2.4,2.8c-0.1,1.3-0.6,2.5-2.3,2.4
			C68.9,20.5,70.9,18.2,69.9,17.4z"/>
		<path class="st8" d="M77.1,37.3c0.9,0,1.3,0.5,1.3,1.3c0,1-0.4,1.6-1.4,1.6c-0.7,0-1.5-0.2-1.5-1.1C75.6,38.1,76.2,37.5,77.1,37.3
			z"/>
		<path class="st8" d="M141.4,11.4c-0.1-0.3-0.2-0.5-0.2-0.8c-0.2-0.5-0.8-1.2,0.3-1.4c0.8-0.2,1.6,0,1.7,1c0.1,0.8,0,1.7,0,2.5
			c0,1.6,0.3,2.8,2.3,2.5c0.8-0.1,1.9-0.1,1.9,1.1c0,1.1-1,1.3-1.8,1.3c-1.8,0-2.2,0.8-2.1,2.5c0.1,3.1,0.2,6.1-0.1,9.2
			c-0.1,1.5,0.3,1.5,1.4,1.4c0.3-0.1,0.7-0.2,1-0.2c0.7,0.1,1.4,0.3,1.4,1.2c0,0.8-0.5,1.2-1.3,1.1c-2.1-0.3-2.6,0.8-2.6,2.7
			c-0.1,3.8-0.2,3.8-4,3.6c-2.7-0.1-5.4,0-8.2-0.1c-0.6,0-1.4,0.3-2-0.4c0.9-0.9,2-0.9,3.1-0.9c2.6,0,5.2,0,7.8,0
			c1.4,0,2.1-0.4,2.1-1.9c-0.1-7.7-0.2-15.3-0.2-23C141.9,12.1,141.9,11.6,141.4,11.4L141.4,11.4z"/>
		<path class="st8" d="M123.3,38.8c-4.9,0-9.1,0-13.3,0c-1.4,0-2.1-0.6-1.9-2c0-0.6,0-1.1,0-1.7c-0.1-1.5-0.5-2.6-2.3-2.4
			c-0.7,0.1-1.7,0-1.7-1.1c0-1.1,1-1.1,1.7-1c1.7,0.1,2.2-0.6,2.2-2.2c-0.1-2.9-0.1-5.7,0-8.6c0-1.7-0.6-2.4-2.4-2.2
			c-0.8,0.1-1.8,0.2-1.9-1c-0.1-1.3,1-1.3,1.8-1.3c2.8-0.1,2.7-0.3,2.8-3.7c0-0.6,0-1.3,0.2-1.8c0.3-0.8,1.2-0.8,1.8-0.5
			c0.8,0.4,0.2,1-0.1,1.3c-0.8,0.8-0.9,1.7-0.9,2.7c0.1,7.2,0.1,14.4,0.2,21.5c0,2.7,0.4,2.9,3.1,2.7
			C117.7,37,120.5,37.3,123.3,38.8z"/>
		<path class="st13" d="M141.4,11.3c-0.8,7.2,0.2,14.4-0.1,21.6c0,0.7,0.5,2.1-0.5,2.1c-1.2,0.1-1.2-1.3-1.3-2.3
			c0-6.9,0-13.9,0-20.8c0-0.5-0.1-1.1,0.3-1.4C140.7,10.1,140.7,11.5,141.4,11.3C141.4,11.4,141.4,11.3,141.4,11.3z"/>
		<path class="st12" d="M112.1,22.8c0,3.4,0,6.8,0,10.3c0,0.7,0.2,1.4-0.5,1.9c-0.3,0.2-0.5,0.5-0.9,0.4c-0.4-0.1-0.4-0.5-0.4-0.9
			c0.2-6.3-0.5-12.7-0.1-19c0.1-1.2,0.1-2.5,0.3-3.7c0.1-0.5,0.5-1.2,1-1.2c0.7,0,0.6,0.8,0.6,1.4C112.1,15.6,112.1,19.2,112.1,22.8
			C112.1,22.8,112.1,22.8,112.1,22.8z"/>
		<path class="st7" d="M112,36.3c0.4-1.1,1-1.5,1.8-1.4c3,0,6,0.1,8.9,0.2c0.7,0,2,0.1,1.8,1.2c-0.2,1.1-1.3,1-2.3,0.7
			C119,36,115.5,36.8,112,36.3z"/>
		<path class="st7" d="M140.2,36.4c-1.2,0.4-2.4,0.6-3.5,0.4c-2.6-0.3-5.1-0.2-7.7,0.2c-0.7,0.1-1.3,0.3-1.4-0.6
			c-0.1-0.8,0.5-1.1,1.1-1.2c0.7-0.1,1.5-0.3,2.3-0.3c2.5,0,5,0.2,7.5,0.2C139.3,35.1,139.8,35.6,140.2,36.4z"/>
		<path class="st7" d="M127.3,38.3c0,1.2-0.2,2-1.4,1.9c-1,0-1.6-0.5-1.6-1.5c0-1,0.4-1.8,1.6-1.8C127,36.8,127.3,37.6,127.3,38.3z"
			/>
		<path class="st10" d="M126.5,21.1c0.2,0.8-0.4,1-0.9,0.9c-0.6,0-1.4,0-1.2-1c0.2-0.9-0.1-2.4,1-2.4
			C126.4,18.7,126.2,20.2,126.5,21.1z"/>
		<path class="st13" d="M127.1,26.4c-0.2,0.1-0.5,0.3-0.7,0.4c0-0.6-0.1-1.2-0.1-1.9c0.1-0.6-0.4-1.7,0.6-1.6
			c0.8,0.1,0.8,1.2,0.7,1.9C127.5,25.7,127.3,26,127.1,26.4z"/>
		<path class="st5" d="M20.6,9c0.7,0,1.4,0,2.1,0c4.2,0.1,4.7,0.7,4.8,4.8c0.3,5.6,0.1,11.3,0.2,16.9c0,0.7-0.1,1.4-0.1,2.1
			c0,1.2-0.4,1.6-1.7,1.2c-2.2-0.6-4.4-0.5-6.6-0.5c-3.1,0-3.7-0.5-3.5-3.6c0.3-6.1,0.4-12.2,0.3-18.4C16,9.4,16.7,8.7,18.7,9
			C19.4,9.1,20,9,20.6,9z"/>
		<path class="st7" d="M44.6,10.9c0.7-0.5-1.2-1.9,0.7-1.8c1.2,0,1.5,0.8,1.4,1.9c0,0.6,0,1.1,0,1.7c-0.2,1.9,0.7,2.7,2.6,2.7
			c0.7,0,1.7-0.3,1.7,1c0,1.1-1,1.2-1.6,1.2c-2.4-0.2-2.6,1.1-2.5,3c0.1,2.7,0.1,5.4,0,8.2c0,1.4,0.5,1.9,1.8,1.8
			c0.5,0,1.1,0.1,1.6,0.2c0.6,0.1,1,0.4,1,1.1c0,0.8-0.6,1-1.3,1.1c-3.2,0.4-3.3,0.4-3.3,3.9c0,1.5-0.4,2.1-2,2.1
			c-4.3-0.1-8.7,0-13.5,0c0.9-1.4,1.8-1.4,2.7-1.4c3.1,0,6.3-0.1,9.4,0c1.5,0,2.1-0.5,2.3-2c0.3-2.2-0.1-4.4-0.1-6.7
			c0-4.7-0.2-9.3,0.2-14c0.1-1.1-0.1-2.2-0.3-3.3C45.3,11,45.2,10.4,44.6,10.9L44.6,10.9z"/>
		<path class="st7" d="M12.2,13.4c0.1,6.2,0.2,12.4,0.2,18.6c0,0.6,0,1.3,0,1.9c0.1,3.4,0.5,3.6,3.9,3.3c2.6-0.3,5.3-0.1,7.9,0.2
			c0.5,0.1,1.1,0,1.1,0.7c0,0.5-0.6,0.5-1,0.5c-3.9-0.1-7.8-0.1-11.7-0.2c-1.4,0-1.4-1.1-1.3-2.1c0.3-3.1,0.3-3.1-2.7-3.7
			c-0.6-0.1-1.6-0.2-1.5-1.1c0-0.7,0.8-1,1.4-1c2.6-0.1,3.2-1.5,3-3.9c-0.2-2.4-0.3-4.7-0.2-7.1c0.1-2-0.7-2.8-2.7-2.8
			c-0.7,0-1.6,0.2-1.6-0.8c0-1,0.9-0.8,1.6-0.9c1.3-0.1,2.6,0,3-1.6C11.7,13.4,12,13.4,12.2,13.4z"/>
		<path class="st10" d="M14.7,10.5c0.6,4.8,0.4,9.4,0.3,14c-0.1,2.9-0.1,5.8-0.1,8.8c0,0.7,0.2,1.4-0.6,1.5c-1,0.2-0.8-0.8-0.8-1.3
			c-0.1-7-0.2-14-0.3-21C13.3,11.6,13.7,11,14.7,10.5z"/>
		<path class="st13" d="M42.9,34.8c0-7.4,0.1-14.9,0.1-22.3c0-1.2,0.1-2,1.6-1.6l0,0c0,6.5,0,12.9-0.1,19.4c0,1-0.3,2.1-0.1,3.1
			C44.6,34.7,43.8,34.8,42.9,34.8L42.9,34.8z"/>
		<path class="st7" d="M42.9,34.8c0.3,0.8,0.8,1.6-0.7,1.6c-3.7,0-7.4,0.1-11.1,0.1c-0.6,0-1-0.2-1-0.8c0-0.8,0.7-0.9,1.4-0.9
			C35.3,34.6,39.1,34.6,42.9,34.8L42.9,34.8z"/>
		<path class="st11" d="M24.6,36.4c-2.2-0.6-5-0.1-7.7-0.4c-0.4,0-1.1,0.3-1.1-0.5c0-0.7,0.6-0.9,1.2-0.9c2.8,0,5.7-0.2,8.5,0.4
			c0.4,0.1,1.3-0.2,1.2,0.7C26.5,36.6,25.8,36.6,24.6,36.4z"/>
		<path class="st7" d="M28.4,40c-1.3,0-1.8-0.7-1.8-1.7c0-1.1,0.8-1.9,1.8-2.1c0.9-0.1,1.7,0.7,1.7,1.7C30.1,39.1,29.6,39.9,28.4,40
			z"/>
		<path class="st13" d="M12.2,13.4c-0.2,0-0.5,0-0.7,0c0-1,0-2.1,0-3.1c0-0.8,0.4-1.2,1-1.3c0.4-0.1,0.9-0.2,1.1,0.2
			c0.4,0.7-0.3,1-0.6,1.3C12.2,11.4,12.2,12.4,12.2,13.4z"/>
		<path class="st14" d="M71.5,79.6c0.2-0.7-0.4-2.6,1.7-1.2c0.7,0.5,0.8-0.1,1.1-0.5c0.6-0.9,1.2-1.9,1.8-2.8c0.2-0.4,0.5-0.7,1-0.5
			c0.5,0.2,0.5,0.7,0.4,1.1c-0.7,2.5-1.6,4.9-3.7,6.5C72.3,83.2,71.4,82.2,71.5,79.6z"/>
		<path class="st14" d="M76.1,67.8c-1.2-0.2-2.7-0.4-2.7-2.3c0-0.8,0-1.9,1.4-1.8c0.9,0.1,3.3,2.1,3.3,2.9
			C78.2,67.3,77.5,67.8,76.1,67.8z"/>
		<path class="st15" d="M82.8,67.4c0.8,0,0.9,0.4,0.9,0.9c0,0.9-0.3,1.7-1.2,2c-0.6,0.2-1-0.4-0.9-1.1
			C81.6,68.4,81.9,67.6,82.8,67.4z"/>
		<path class="st14" d="M80.6,26.4c2.4-2.8,2.6-9.6,0.2-11.6c1.7-0.4,3.3-0.2,4.8-0.1c-2.1,2.9-2.2,9.5-0.2,11.6
			C83.9,26.8,82.4,27,80.6,26.4z"/>
	</g>
	<path class="st16" d="M1.8,0"/>
	<path class="st11" d="M125.2,24l0-10.1c0-0.5,0-1,0-1.4c-0.1-1.8-0.8-2.8-2.8-2.9c-2.6-0.2-5.1-0.2-7.7-0.3
		c-1.4-0.1-1.8,0.3-1.8,1.7c0.1,7,0,14.1,0,21.1c0,1.4,0.5,1.9,2,1.8c3-0.1,6-0.3,8.9,0.5c0.6,0.2,1.2,0.2,1.2-0.6
		C125.3,30.5,125.7,27.3,125.2,24z M114.9,16.4l0,0.2c0,0,0,0-0.1,0C114.9,16.5,114.9,16.5,114.9,16.4z"/>
	<path class="st11" d="M138.6,10.9c0-1.3-0.4-1.8-1.8-1.8c-2.6,0.1-5.1,0-7.7,0.1c-1.9,0.1-2.9,1.1-2.8,3.1v14.9v3.8h0
		c0,0.1,0,0.2,0,0.3c0,3.3,0,3.2,3,2.6c0.7-0.1,1.4-0.1,2.1-0.1c1.7,0,3.3,0,5,0.1c1.5,0,2.1-0.5,2.1-2.1c-0.1-2.5,0.1-5,0.1-7.5
		C138.6,19.9,138.6,15.4,138.6,10.9z"/>
	<rect x="125.2" y="15.1" class="st4" width="1.1" height="8.3"/>
	<path class="st5" d="M41.9,21.4c0-3.5,0-7,0-10.5c0-0.7,0.3-1.7-0.9-1.7c-3.2,0.1-6.4-0.5-9.6-0.1c-1.5,0.2-2.7,0.8-2.7,2.6
		c0,7,0,14.1,0,21.1c0,0.8,0.2,1.5,1.2,1.2c3.5-0.8,7.1-0.3,10.6-0.5c1.1-0.1,1.4-0.4,1.4-1.5C41.9,28.5,41.9,24.9,41.9,21.4z"/>
	<path class="st5" d="M76.6,28c-0.1-0.3-0.1-0.6-0.2-0.8v-1.7c0.1-0.1,0.1-0.4,0.1-0.6c0.4-4.2,0.2-8.4,0.2-12.5
		c0-1.6-0.8-2.6-2.5-2.8c-2.5-0.4-5-0.1-7.5-0.2c-1.2-0.1-1.7,0.2-1.7,1.6c0.1,7.1,0.1,14.1,0,21.2c0,1.3,0.5,1.7,1.6,1.8
		c3,0.3,6-0.3,8.9,0.7c0.4,0.1,0.9,0,0.8-0.6C76.3,31.9,77,29.9,76.6,28z"/>
	<path class="st5" d="M91,10.5c0-0.7-0.1-1.3-1-1.3c-3.3,0.1-6.7-0.4-10,0.1c-1.5,0.2-2.4,1-2.3,2.8c0.1,3.4,0,6.8,0,10.3
		c0,0,0,0-0.1,0c0,3.6,0,7.1,0,10.7c0,0.7-0.1,1.5,1.1,1.2c2.5-0.8,5.1-0.4,7.7-0.4c4.1,0,4.4,0,4.5-4C91.1,23.3,91,16.9,91,10.5z"
		/>
	<text transform="matrix(0.9 0 0 0.86 15.8688 27.6665)" class="st17 st18">V</text>
	<text transform="matrix(0.9 0 0 0.86 29.8961 27.6665)" class="st17 st18">E</text>
	<text transform="matrix(0.9 0 0 0.86 64.4996 27.6665)" class="st17 st18">R</text>
	<text transform="matrix(0.9 0 0 0.86 81.0001 28.0865)" class="st17 st18">I</text>
	<text transform="matrix(0.9 0 0 0.86 111.9533 27.6665)" class="st17 st18">T</text>
	<text transform="matrix(0.9 0 0 0.86 120.0509 27.6665)" class="st17 st18">A</text>
	<text transform="matrix(0.9 0 0 0.86 129.3546 27.6665)" class="st17 st18">S</text>
</g>
<rect x="3.8" y="46.1" class="st11" width="16.1" height="7.1"/>
<rect x="76" y="46.1" class="st11" width="17.6" height="7.1"/>
<rect x="113" y="46.1" class="st11" width="17.6" height="7.1"/>
<rect x="39.2" y="46.1" class="st11" width="17.6" height="7.1"/>
</svg>
