<?xml version="1.0" encoding="utf-8"?>
<!-- Generator: Adobe Illustrator 22.1.0, SVG Export Plug-In . SVG Version: 6.00 Build 0)  -->
<svg version="1.1" id="Layer_1" xmlns="http://www.w3.org/2000/svg" xmlns:xlink="http://www.w3.org/1999/xlink" x="0px" y="0px"
	 viewBox="0 0 170 205" style="enable-background:new 0 0 170 205;" xml:space="preserve">
<style type="text/css">
	.st0{fill-rule:evenodd;clip-rule:evenodd;fill:#010201;}
	.st1{fill-rule:evenodd;clip-rule:evenodd;fill:#FEE090;}
	.st2{fill-rule:evenodd;clip-rule:evenodd;fill:#FFFFFF;}
	.st3{fill-rule:evenodd;clip-rule:evenodd;fill:#B7203A;}
	.st4{fill-rule:evenodd;clip-rule:evenodd;fill:#B9213A;}
	.st5{fill-rule:evenodd;clip-rule:evenodd;fill:#B8213A;}
	.st6{fill-rule:evenodd;clip-rule:evenodd;fill:#B8223A;}
	.st7{fill-rule:evenodd;clip-rule:evenodd;fill:#BB263C;}
	.st8{fill-rule:evenodd;clip-rule:evenodd;fill:#BA263C;}
	.st9{fill-rule:evenodd;clip-rule:evenodd;fill:#E2886A;}
	.st10{fill-rule:evenodd;clip-rule:evenodd;fill:#B8203A;}
	.st11{fill-rule:evenodd;clip-rule:evenodd;fill:#BA253C;}
	.st12{fill-rule:evenodd;clip-rule:evenodd;fill:#EFB57C;}
	.st13{fill-rule:evenodd;clip-rule:evenodd;fill:#FBD88C;}
	.st14{fill-rule:evenodd;clip-rule:evenodd;fill:#F9D38B;}
	.st15{fill-rule:evenodd;clip-rule:evenodd;fill:#FBD98D;}
</style>
<g>
	<path class="st0" d="M86.4,5.1c26.2,0,52.4,0,78.5-0.1c2.8,0,3.1,0.9,3.1,3.3c-0.6,17.4-0.6,34.7-1.8,52.1
		c-2.1,31.3-8.3,61.6-23.6,89.5c-12.6,22.9-31,39.5-54.2,51.1c-1.4,0.7-2.5,0.7-4,0c-31-15-51.4-39.4-63.6-71.1
		C14.4,113.5,10.6,96.5,8.4,79C6.1,60.7,5.6,42.3,5.2,23.9C5.1,18.5,5.1,13.1,4.8,7.8C4.7,5.5,5.4,5,7.5,5
		C33.8,5.1,60.1,5.1,86.4,5.1z"/>
	<path class="st1" d="M153.6,114.7c-21.6-17.4-43-34.5-64.2-51.7c-2.2-1.8-3.6-1.9-5.8,0c-20.6,17.2-41.4,34.3-62,51.5
		c-2.3,1.9-2.5,0.7-3.1-1.1c-4-14.3-6.5-28.9-7.9-43.6C8.8,50.3,8.6,30.9,8.2,11.5c-0.1-2.4,0.3-3.3,3.1-3.3
		c50.1,0.1,100.3,0.1,150.4,0c2.2,0,2.9,0.4,2.9,2.8c-0.2,20-0.7,40-2.6,59.9c-1.3,14-3.7,27.8-7.6,41.3
		C154.2,113.1,153.9,113.8,153.6,114.7z"/>
	<path class="st1" d="M86.4,198.2c-0.6-0.3-1.2-0.6-1.7-0.8c-21.7-10.9-39.1-26.5-51-47.9c-0.8-1.4-1-2.2,0.4-3.4
		c16.8-14.1,33.6-28.2,50.3-42.5c1.5-1.3,2.3-1.2,3.8,0c16.9,13.6,33.8,27.1,50.8,40.5c1.4,1.2,1.7,1.9,0.8,3.7
		c-11.9,22.2-29.5,38.2-51.8,49.6C87.6,197.6,86.9,197.9,86.4,198.2z"/>
	<path class="st2" d="M28.5,139c-2.2-3.9-3.6-8-5.3-12c-0.5-1.2,0.2-1.7,1-2.4c12.8-10.6,25.5-21.2,38.2-31.9
		c7.5-6.2,15-12.4,22.5-18.8c1.2-1,1.8-1.1,3.1,0c20.4,16.2,40.8,32.4,61.2,48.5c1.2,0.9,1.5,1.7,0.9,3.2c-1.4,3.1-2.6,6.3-3.8,9.4
		c-0.6,1.5-1,1.9-2.5,0.7c-8.8-7.2-17.6-14.2-26.4-21.3c-9.7-7.8-19.5-15.6-29.2-23.5c-1.4-1.1-2-1-3.3,0.1
		C66.1,107,47.4,123,28.5,139z"/>
	<path class="st3" d="M60,73.8c-2.4,1.3-4.6,2.4-6.6,3.7c-3,1.8-5.6,3.9-7.2,7.1c-0.5,0.9-0.9,2.6-2.6,0.8c-0.9-1-1.9,0-2.6,0.9
		c-0.6,0.9-1,2.1-2.2,2.2c-1.1,0.1-2.5,0.5-3.3-0.5c-1.2-1.6,0.6-2.5,1.1-3.9c-1.3-0.2-3.1,0.5-3.2-1.4c-0.1-1.6,0.9-2.6,2.6-3
		c1.1-0.3,1.1-0.4,0.4-1.6c-0.5-0.8,0-1.6,0.5-2.1c1-0.9,2.1-0.9,3.2-0.3c4.2,2.4,6.7,2.2,10.5-0.8c0.6-0.5,1.4-1,1.1-1.9
		c-0.2-0.8-1-1.2-1.8-1.2c-2-0.2-3.8-0.8-5.5-1.9c-2.8-1.9-3.8-4.5-2.7-7.3c1.1-2.8,3.9-4.4,7-4c0.8,0.1,1.6,0.3,2.6,0.4
		c-0.2-2.1-1.8-2.4-3.1-2.9c-2-0.8-4.1-1.5-5.8-2.7c-1.9-1.3-1.8-2.9,0.2-4.1c1.4-0.8,2.9-1.1,4.5-1.1c2,0,4.1,0.2,5.8-0.7
		c2.9-1.5,3.4,0,4.2,2.2c1.1,3.2,3,5.9,5.9,7.7c2.4,1.5,4.4,1.1,6.5-1.2c2.2-2.5,3-6.2,1.7-8c-1.5-1.9-3.5-2.1-5.8-1.3
		C65,42.7,68,43,70.8,42.7c-1.3-3.1-3-5.8-3.4-9.1c-1.4-11.4,10-21.1,20.7-17.4c4,1.3,7.8,3,12.7,3.1c-4,5.3-8.8,6.8-14.8,5.4
		c-0.2,1.5,1.5,2.3,0.7,3.9c-3.9-2.1-8.1-4.7-12.1-0.9c-2.9,2.7-5,6.3-3.3,11.1c1.3-1.7,2.5-3,3.8-4.3c1.9-1.9,2.1-0.4,2.6,0.8
		c0.2,0.4,0.2,1.1,0,1.4c-4,4.4-1.4,10.4-3.6,15.2c-1.3,3-1.9,6.7-5.1,7.8c-3.4,1.1-5.6,2.6-7.5,5.6c-1.4,2.4-4.4,1.8-7.1,1.6
		C55,70.3,58.1,71.4,60,73.8z"/>
	<path class="st3" d="M147.5,29.9c-0.6-2.7-1.2-5.3-1.6-8c-0.5-3.3,0.1-6.4,2.7-8.8c2.3-2.1,4.8-2.4,7.5-0.9
		c2.6,1.4,3.7,3.8,3.2,6.9c-0.5,3.1-2.3,5.5-3.4,8.4c-1,2.7-2.3,5.3-2.1,8.4c1.6-0.4,1.6-2.1,3.2-3c-1,4.9-0.2,9.4-0.1,13.9
		c0,0.4,0,0.9-0.2,1.1c-3.1,3.5-1.3,7.2-0.3,10.8c0.6,2.1,1.2,4.1,1,6.3c-0.3,3.6-2.5,6.2-6,7c-0.9,0.2-2.4-0.4-2.7,1.1
		c-0.3,1.6-0.1,3.2,1.2,4.3c1,0.8,2.1,1.4,3.2,2.1c0.9,0.6,1.7,1.2,1.4,2.3c-1.4,5-2.8,10-4.4,15.8c-1.7-3.6-3.1-3.5-4.8-1.3
		c-1,1.4-2.6,1.4-4,1c-2.6-0.7,0-2.4-0.7-3.8c-0.6-0.9-2.9,1.2-3.1-1.3c-0.2-2.2,1.7-2.3,2.8-3c0.2-1.4-2.3-0.6-1.6-2.3
		c0.5-1.2,1.3-2,2.6-2c1.6,0,2.1,1.2,2.5,2.4c0.3,1.1,0.3,2.5,1.9,2.5c1.5,0,1.8-1.4,2.2-2.4c1.8-4-0.8-7.7-5.2-7.7
		c-1.5,0-2.9,0.2-4.4,0.2c-4,0.1-6-1.2-6.5-4.4c-0.7-3.8,1-7.2,4.2-8.4c3-1.1,3-1.2,1-3.9c-2.6-3.5-6.1-6-9.4-8.7
		c-2.1-1.7-2.6-3.8-2.3-6.3c0.2-1.7,0.9-2.8,2.6-1.2c1.2,1.2,1.7,0.6,2.4-0.3c1.3-1.5,2.8-2.6,4.9-3c3.9-0.6,5.2,0.6,5.3,4.4
		c0.1,5.9,1.9,11.3,5.7,15.9c0.8,1,1.7,1.9,2.1,3.1c0.7,2.3,2.5,2.9,4.5,1.6c1.5-0.9,2.4-2.3,2.5-4.1c0-1.5,0-2.9-0.4-4.4
		c-0.4-1.7-0.4-3.9-2.6-4.1c-1.9-0.2-2.5,1.8-3.2,3.3c-1.1-1.4-1.8-2.8-1.7-4.4c0.2-1.8,0.9-3.4,3.1-3.1c2.1,0.3,1.9-0.9,1.7-2.2
		c-0.4-2.3-0.8-4.6-1.1-6.9c-0.8-5.9,1.9-11.3,2.6-17c0.2-1.8,1.2-3.7-0.7-5.1c-0.8-0.7-1.9-0.7-2.8-0.2c-2,1.1-1.2,3.1-1.3,4.8
		c-0.1,1.5-0.1,2.9-0.2,4.4C148.2,30.4,147.8,30.4,147.5,29.9z"/>
	<path class="st3" d="M58.3,44.1c-1.4,2.1-4.3-2.7-4.9,2.1c-2.4-3-4.5-1.8-6.8-0.2c-1.4,1-3.2,1.5-5,1.5c-1.8,0-3.3,0.4-4.1,2.2
		c-1.9-5.9,0.3-12.8,5-16.1c1.6-1.1,3.3-2.1,5-3c6.3-3.3,7.2-4.5,8.6-12c3.5,5.5,4.9,10.8,2.6,16.7C57.6,38.4,56.5,41.3,58.3,44.1z"
		/>
	<path class="st3" d="M142.1,20.4c2.2,3.4,2.1,6.6,1.6,9.8c-0.6,3.8-1.8,7.6-2,11.5c-0.1,1.3-0.6,1.5-1.7,1c-3.8-1.5-7.3-1-10.3,1.6
		c-0.8,0.7-1.2,0.5-2,0.1c-1.2-0.7-2.4-1.3-3.7-1.8c-2.5-1-3-1.9-1.4-4.3c2.4-3.7,5.7-6.3,9.6-8.3C136.3,28,140.3,25.7,142.1,20.4z"
		/>
	<path class="st4" d="M43.5,57.3c-4.6,3.3-5.4,5.4-4.2,10.7c-1.7,0.1-3.5-0.2-5.2,0.4c-1.6,0.6-3.2,1.3-5,2.1
		c0.1-1.5-0.2-2.9-1.7-3.3c-1.4-0.4-1.9,1-2.6,1.9c-1.2,1.7-3.2,1.6-4.6,0.8c-1.8-1-0.4-2.5,0.3-3.9c-1.8-0.3-4.5,3.2-5-1.1
		c-0.3-2.2,1.4-3,5.9-2.8c-0.5-0.5-1.1-0.7-1.3-1.2c-0.5-1.2-2.7-2.1-0.7-3.8c1.5-1.2,4.1-0.9,5.1,0.8c0.4,0.7,0.7,1.6,0.8,2.5
		c0.3,2.9,2.3,3.8,4.6,3.9c1.8,0.1,3.5-0.6,2.9-2.9c-0.8-2.9-0.3-5.3,2.3-6.8c2.8-1.6,5,0.2,7.1,1.7C42.8,56.6,43.1,56.9,43.5,57.3z
		"/>
	<path class="st4" d="M103.7,39.2c-0.4-0.8-0.6-1.3-0.8-1.7c-0.9-1.8,0-3.4,1.3-4c1.6-0.8,2.9,0.6,3.7,2c0.1,0.2,0.2,0.4,0.2,0.6
		c0.6,8.1,6.4,9.9,13,10.4c1.7,0.1,2.7,0.4,2,2.4c-0.7,2.1,0.4,4,0.8,6.2c-2.9-0.4-5.5-1.4-7.6-3.3c-1.5-1.3-3.1-2.3-5-2.9
		c-0.5-0.2-1.1,0-1.4-0.7c-1.1-2.3-2.7-2.5-4.6-0.6c-0.4,0.4-0.8,1-1.3,1.2c-1,0.4-2,2.2-3.1,0.8c-1.1-1.3-1.4-3,0.3-4.4
		c0.6-0.5,2.1-0.6,1.5-1.8c-0.6-1.2-1.5-0.1-2.2,0.2c-1.5,0.8-2.2-0.8-3.4-1c-0.6-0.1-0.3-1.4-0.1-2.1c0.5-1.3,1.4-2,2.8-2.2
		C101.2,38.1,102.1,39,103.7,39.2z"/>
	<path class="st5" d="M12.7,20.9c0.6-1.4,2.3-1,3.2-2.4c-1.2-0.7-3-1.3-2.6-3.2c0.4-1.8,3.8-2.1,4.9-0.5c0.6,0.8,0.2,2.2,1.4,2.7
		c1,0,0.5-0.8,0.8-1.3c0.5-0.8,0.7-2.3,2-2c1.2,0.2,2.2,1.2,2.1,2.5c-0.5,4.3,0.5,8.1,3.6,11.2c2.9,2.9,6.6,4.5,10.6,5.6
		c-1.5,2.4-2.1,5.5-5.9,4.6c-0.5-0.1-1.2,0.1-1.5-0.6c-0.5-1.5-1.9-1.9-3.2-2.3c-1.5-0.5-2.6-1.5-3.1-2.9c-0.6-1.7-1.6-2.9-3.3-3.4
		c-0.4-0.1-0.9-0.2-0.9-0.9c0.2-2.9-1.8-4-4-4.4C14.9,23.3,13.7,22.3,12.7,20.9z"/>
	<path class="st4" d="M127,75.5c-1.7,0.1-3,0.2-4.4,0.6c-1.7,0.6-3.3,2-5.1-0.2c-0.6-0.7-2.2-0.6-3.2,0.4c-0.3,0.2-0.6,0.7-0.8,0.7
		c-1-0.2-2-1.1-1.7-2c0.6-2.3-7-3.8-0.6-6.5c0.5-0.2,1.6-0.4,0.6-1.3c-0.5-0.4-1.7,0-1.1-1.3c0.4-0.9,1-1.7,2.1-1.8
		c1.8-0.2,3.3,0.1,3.8,2.2c0.4,1.7,1,3.4,2.4,4.6c1.2,1.2,2.6,1.8,4.3,1.2c1.6-0.6,1.9-2,2-3.6c0.1-1.7,0.1-3.3,0.5-4.9
		c0.4-1.6,1.6-2.5,3.2-2.4c2,0.1,3.4,1.3,4.4,3c1,1.6-0.4,2.3-1.3,3.1c-1.8,1.6-3.1,3.6-2.9,6.1C129.4,75.4,128.9,76.4,127,75.5z"/>
	<path class="st5" d="M108,24.4c-1.6-0.6-2.6-0.7-3.2-1.2c-0.6-0.6-1.9-1.1-1.5-2.3c0.5-1.2,1.7-2,2.8-1.4c1.8,0.9,2-0.1,2.5-1.4
		c0.3-0.8-0.3-2.2,1.3-2.1c1.5,0.1,3,1.1,2.8,2.4c-0.6,6.3,3.9,8.6,8.3,11.1c0.3,0.1,0.5,0.3,0.8,0.5c3.2,2,3.2,3.8,0.1,6
		c-0.5,0.3-0.9,0.4-1.2,0c-1.6-2.2-5.3-1.4-6.2-4c-0.7-2-1.8-3.3-3.4-4.4c-1.7-1.1-2.1,0.6-3,1.3c-1.3,1-3.3,1.1-3.9,0.1
		c-0.8-1.2,0-3,1.5-4C106.2,24.7,106.8,24.7,108,24.4z"/>
	<path class="st4" d="M34.6,41.9c0.4,6.3,1.4,7.3-6.1,5.1c-2-0.6-3.5-0.7-5.2,0.5c-0.7,0.5-1.7,1.3-1.9-0.6
		c-0.2-1.6-1.4-1.4-2.4-0.8c-0.7,0.4-1.2,1-2.2,1.1c-2.5,0.1-3.1-0.4-2.2-2.7c0.6-1.4,0.6-2.3-1-2.6c-0.8-0.2-1.9,0.2-1.8-1.2
		c0.1-1.1,0.7-2.1,1.7-2.1c2.2-0.1,1.6-1.7,1.1-2.5c-1.2-2,0.2-1.9,1.4-1.8c1.5,0.1,2.5,0.9,3.3,2.2c3.3,5.2,8,7.1,14.1,5.9
		C33.7,42.1,34.1,42,34.6,41.9z"/>
	<path class="st6" d="M129.3,27.6c-1.1-0.1-1.8,0-2.4-0.3c-0.9-0.3-2.6,0.2-2.6-1.2c0-1.3,1.6-0.5,2.5-0.7c2.2-0.5,3.4-2.6,2.9-4.9
		c-0.6-2.5-2.1-2.9-4.4-2.2c-0.9,0.3-2.4,1.6-2.8-0.2c-0.4-1.5,1.2-2.1,2.5-2.3c1.7-0.3,3.1-0.8,4.6-1.7c1.6-0.9,3.4-0.6,5.1,0.1
		c2.2,1,4.3,1.9,6.7,0.6c0.4-0.2,1-0.4,1.3,0.1c0.4,0.8,0.4,1.9-0.4,2.4c-2,1.3-2.1,3.6-3.3,5.3C136.6,26.1,132.8,27.1,129.3,27.6z"
		/>
	<path class="st5" d="M41.7,27.6c-0.9,0-1.5,0.1-2,0.1c-0.5,0-1-0.1-1.1-0.7c-0.2-0.9,0.6-0.9,1.1-0.9c2.1-0.1,3.7-0.7,4.3-3.1
		c0.8-3.5-1.2-5.5-5.1-4.6c-0.7,0.2-1.7,1.1-2.1,0.2c-0.5-1,0.5-1.9,1.4-2.2c4-1,7.6-4.4,12.2-2.2c0.9,0.4,1.9,0.2,2.8-0.2
		c0.5-0.2,0.9-1.3,1.6-0.4c0.6,0.8,0.8,1.8,0,2.4c-1.6,1.3-1.5,3-1.3,4.8c0.3,3.3-1.8,4.7-4.4,5.7C46.7,27.5,44,27.1,41.7,27.6z"/>
	<path class="st7" d="M29.8,22.8c3.9-0.1,8.2-3.8,11.9,1.3C37.4,24,33.3,26.4,29.8,22.8z"/>
	<path class="st8" d="M116.5,20.2c3.8,1.3,7.4-2,10.5,1.1C122.6,24.6,119.3,24.4,116.5,20.2z"/>
	<path class="st9" d="M147.5,29.9c0.3,0,0.7,0,1,0c0.1,0.8,0,1.5-0.8,2C147.2,31.3,147.4,30.6,147.5,29.9z"/>
	<path class="st10" d="M92.6,159.7c-2.7-3.3-5.9-4.5-9-5.8c-4-1.6-5.9-4-6-7.5c0-1.7,0.4-2.8,2.5-2.7c1.6,0.1,3.3,0.4,4.8-0.8
		c0.9-0.7,1.3,0.5,1.7,1c1.6,2,2.9,4.2,5,5.7c1,0.7,1.9,1.8,2.9-0.2c0.8-1.6,1.6-1,2,0.5c0.4,1.6,0.6,3.3,0.6,4.9
		c0,1.4,0.2,2.7,0.4,4.1c0.9,4.3,3.7,7,7.3,7.2c3.8,0.2,7.3-2.5,8.7-6.5c0.6-1.8,0.4-3.3-1.2-4.4c-1.6-1.1-2.7,0.1-3.9,0.9
		c-0.5,0.4-0.8,1.2-1.6,1.2c0.2-5.1,0.3-5.3,4.5-6.7c2.5-0.8,0.6-1.9,0-2.8c4.8-0.3,5.6-1.1,5.7-6c0.1-4.8-1.9-8.5-5.3-9.9
		c-0.7-0.3-1.5-0.8-2,0.2c-0.5,0.9,0.4,1.2,0.9,1.6c1,0.9,2.1,1.8,2.7,3c0.4,0.7,0.4,1.5,0.3,2.3c-0.2,1.1-4.6,7.7-5.9,8.7
		c0.4-4.4-1.5-7.8-4-11c-1.5-2-1.3-4.3-0.1-6.3c1.3-2.1,3.4-2.7,5.9-2.1c5.8,1.4,9.8,7.6,9.4,14.7c-0.1,1-0.1,1.9-0.2,3.2
		c1.9-1.2,3.6-2.8,5.8-0.7c-1.9,2.3-4.1,4.6-2.9,8.1c0.2,0.6-0.4,0.8-0.8,1c-2.8,1-4.2,3.3-5.5,5.8c-4.3,8.3-7.4,9.5-16.4,6.3
		c-0.5,2.8,1.4,4.3,3.2,5.8c0.9,0.8,2,1.3,2.9,1.9c0.6,0.4,1.3,0.8,0.6,1.6c-3.5,3.3-5.4,8.1-10,10.5c-1.4,0.7-2.3,1.6-3.2-0.7
		c-0.9-2.2-2.9-0.6-3.3,0.4c-1,3-3.1,3.9-6,3.9c-1.2-3,1.2-4.5,3.2-6.4c-1.8-1-3.2,1.3-5,0c-1.6-1.1-1.5-1.7-0.5-2.8
		c1.5-1.5,3.3-1.9,5.3-1.4c0-1.5-2.3-3,0.4-3.9c2-0.7,4,0.4,4.3,2.5c0.3,2,1.2,3.6,3.1,3.7c2.1,0.2,2.7-2,3.5-3.5
		c0.9-1.9-0.6-2.9-2-3.7c-2.2-1.3-4.4-2.5-6.6-3.7c-1.9-1.1-3.5-2.4-4.4-4.5c-0.8-1.9-1-3.8,0.4-5.5c1.4-1.7,3.3-2.3,5.5-1.8
		C90.9,159.2,91.4,159.4,92.6,159.7z"/>
	<path class="st3" d="M87.5,140.5c-1.6,0.6-2.8,1.3-4.1,1.4c-1,0.1-3.6,1.9-2.5-1.6c0.3-1-0.7-0.9-1.4-0.6c-1,0.5-1.9,1-2.8,1.5
		c0.1-5,4.1-9.9,9.2-11.5c5-1.6,9.5-3.7,11.3-9.2c2.3,2,2.2,4.4,1.9,6.9c-0.4,4-1.5,7.8-1.7,11.8c-0.1,2.7,0,5.4,1.8,8.5
		c-2.4-1.2-4-2.4-5.3,0.1c-0.4,0.9-1.2,0.1-1.7-0.3C89.9,145.7,87.8,143.7,87.5,140.5z"/>
	<path class="st5" d="M85.6,158c-3.7,2.8-4.2,5.2-2.4,10.4c-3.9-0.3-7.2,1.3-10.5,3c-1.1,0.6-2.4,2.1-2.9-0.8
		c-0.2-1-4.6-0.7-5.8,0.4c-0.6,0.6-1.1,1.6-1.9,1.8c-0.8,0.2-1.4,1.4-2.2,0.8c-0.9-0.6-1.3-1.7-0.9-2.8c0.6-1.8,0-2.7-1.9-2.4
		c-1,0.1-2,0.6-1.8-1.1c0.1-1.4,0.1-2.8,2-3c0.8-0.1,1.7,0,2.7,0c-0.2-0.5-0.2-0.8-0.3-1c-0.6-0.7-2.4,0-1.9-1.8
		c0.3-1.3,1.2-2.1,2.5-2.2c1.2-0.1,2.4,0,2.9,1.7c1.3,3.8,7.8,5.9,11,3.7c1.1-0.8,0.1-1.4-0.3-1.9c-1.1-1.4-2.2-2.7-1.6-4.7
		c0.8-2.8,3.5-3.9,6.6-2.9C81.1,155.9,82.9,157.7,85.6,158z"/>
	<path class="st4" d="M53.2,141.4c0.3-1.6-3.3-2-1-4.1c1.6-1.4,3.2-1.2,4.7,0.1c0.7,0.6,1.3,1.2,1.3,2.2c0.1,2.4,1.7,3.2,3.7,3.9
		c3.9,1.3,7.9,1.3,11.9,0.9c1.4-0.1,2.2-0.2,2.1,1.6c-0.2,2.1,0.8,4,1.7,6.1c-3.3-0.3-6.4-1.1-9-2.7c-2.5-1.5-4.7-1.5-7.1-0.4
		c-1,0.5-2.2,1.3-2.3-0.9c0-0.8-0.6-1.8-1.7-1.8c-1,0-1.1,1-1.2,1.7c-0.3,1.7-1.6,2.4-2.9,2.4c-1.3,0-2.2-1.2-2.1-2.6
		c0-0.9-0.5-1.2-1.3-1.2c-2,0.2-2.5-0.8-2.3-2.6c0.2-1.9,1.2-2.8,3-2.7C51.6,141.4,52.4,141.4,53.2,141.4z"/>
	<path class="st4" d="M77.6,121.1c0.1-0.6,0.1-1.1,0.3-1.1c4-1.6,6.8-6.1,12-4.6c2.4,0.7,4.9,1.5,7.2-0.4c0.7,1.2,0,1.8-0.5,2.5
		c-0.4,0.5-1.2,0.9-1.3,1.5c-1.2,6.7-7.2,7.1-11.9,9.3c-0.7,0.3-1.5,0.4-2.3,0.6c-0.6,0.1-1.4,0.6-1.7-0.4c-0.3-1,0.5-1.1,1.1-1.3
		c1.6-0.7,2.5-1.7,2.4-3.6C82.7,120.5,81.4,119.9,77.6,121.1z"/>
	<path class="st4" d="M64.1,132.1c-0.9-0.1-1.8-0.2-2.4-0.9c-0.6-0.8-2.2-1.4-1-2.8c1-1.3,2.4-1.8,3.8-0.8c1.1,0.8,2,2.1,3.2,3.4
		c-0.1-0.9-0.1-1.4-0.3-1.8c-0.7-1.7-0.5-3.6,1.1-3.9c1.8-0.4,3.6,1.2,3.5,3.1c-0.2,3.8,2.2,4.6,5.1,5c-0.8,3.1-2.5,5-5.8,5.4
		c-1.2,0.1-1.7,0.4-1.8-1.2c-0.2-2.4-1.5-2.4-3.1-1.1c-0.7,0.5-1.2,1.6-2.1,1.3c-1.1-0.3-2.8,0.6-3.3-0.9c-0.5-1.4-0.5-2.9,1-3.9
		C62.5,132.5,63.9,133.8,64.1,132.1z"/>
	<path class="st11" d="M72.1,123.6c3.1,0.6,6.5-3.5,9.6,0.6C78.3,124.9,75,127.3,72.1,123.6z"/>
	<path class="st12" d="M64.1,132.1c0.8,0.4,0.7,0.8,0,1c-0.7,0.1-1.5,0-2.3-0.1C62.4,132.2,63.6,133,64.1,132.1z"/>
	<path class="st13" d="M133.8,16.4c-1,0.3-1.7,0.6-2.4,0.8c-0.6,0.1-1.4,0.4-1.9-0.2c-0.1-0.1-0.1-0.6,0-0.8c0.4-0.9,1.2-0.9,2-0.9
		C132.2,15.3,132.9,15.6,133.8,16.4z"/>
	<path class="st14" d="M48.3,17c-1.6,0.6-3,1.4-4.3,0.2c-0.4-0.4,0.2-1.1,0.7-1.4C46.2,14.7,47.2,15.5,48.3,17z"/>
	<path class="st15" d="M89.9,117.6c-0.8,0.5-1.3,0.8-1.9,1.1c-0.9,0.4-1.8,0.9-2.6,0.1c-0.2-0.2-0.1-0.8,0.1-1
		c0.7-0.7,1.5-1.1,2.5-0.6C88.5,117.5,89.1,117.5,89.9,117.6z"/>
</g>
</svg>
