<?xml version="1.0" encoding="utf-8"?>
<!-- Generator: Adobe Illustrator 22.1.0, SVG Export Plug-In . SVG Version: 6.00 Build 0)  -->
<svg version="1.1" id="svg3633" xmlns:svg="http://www.w3.org/2000/svg"
	 xmlns="http://www.w3.org/2000/svg" xmlns:xlink="http://www.w3.org/1999/xlink" x="0px" y="0px" viewBox="0 0 744.1 403.2"
	 style="enable-background:new 0 0 744.1 403.2;" xml:space="preserve">
<style type="text/css">
	.st0{fill:#0078C1;}
</style>
<g id="layer1" transform="translate(-649.89646,-406.26802)">
	<g id="g20076" transform="translate(17.716521,17.668446)">
		<path id="path19828" class="st0" d="M1129.3,547.5c-4.4-3.2-11.4-5.3-18.2-5.2c-7.4,0.1-14.4,2.5-19.3,6.4v-46.5h-23v151.6h23
			v-79.2c0-5.5,4.7-11.5,13.2-11.9c3.8-0.1,9.1,1.6,11.8,5.6c2.9,4.2,2.7,9.9,2.7,16l-0.1,69.6h23v-70.3
			C1142.4,562.6,1139.8,555.2,1129.3,547.5"/>
		<path id="path19830" class="st0" d="M942.4,599.5c0,14.8-0.5,18.9-0.6,20.2c-0.8,8.3-4.3,17-13.9,17c-9.5,0-13.4-9.3-13.8-17.4
			c-0.1,0-0.6-5.1-0.6-19.9c0-14.8,0.5-21,0.6-21c0-8.4,4.4-16.7,13.8-16.7c9.5,0,13.8,8.3,13.9,16.6
			C941.7,578.5,942.4,584.7,942.4,599.5z M964.6,581.6c-3.2-32.3-21.7-39.3-36.7-39.3c-21.4,0-34.4,13.6-36.7,39.3
			c-0.3,2.1-0.5,5.8-0.6,17.9c-0.1,8.8,0.5,16.1,0.6,17.9c1.4,24,15.2,38.7,36.7,38.7c21.5,0,35.3-14.9,36.9-38.7
			c0.1-1.7,0.5-9.1,0.5-17.9C965.2,595.5,965,584.7,964.6,581.6"/>
		<path id="path19832" class="st0" d="M1180.8,585.9c0.1-5.1,0.1-6.1,0.3-7.5c0.6-9.1,4.7-16.6,14-16.6c11-0.1,13.6,10.6,14,16.6
			c0.3,3.2,0.4,5.3,0.4,7.5H1180.8z M1209.2,616.2c0,0,0,1.7-0.3,3.8c-0.6,5.3-2.7,16.7-13.9,16.7c-9.6,0-13.2-8.7-13.9-17.3
			c-0.1-2.5-0.5-5.2-0.5-14.5h51.3c0,0,0-7.7-0.1-12.2c0-1.8-0.1-4.8-0.5-11.2c-0.8-9.7-4.4-20.4-10-27.1
			c-6.4-8-15.4-12.2-26.2-12.2c-20.8,0-33.7,13.5-36.2,39.3c-0.3,2.3-0.6,5.6-0.6,17.9c0,8.8,0.5,16.2,0.6,17.9
			c1.3,23.6,15.3,38.7,36.2,38.7c20.8,0,34.6-14.7,36.2-39.8H1209.2"/>
		<path id="path19834" class="st0" d="M817.8,424.8h373.5L1334,592l-142.7,164.8H817.8L674.4,591.4L817.8,424.8z M1200.2,406.3
			H808.7L649.9,590.8l159,183.4h391.4l158.3-182.7L1200.2,406.3"/>
		<path id="path19836" class="st0" d="M822.5,522.8h10.8c11.8,0,18.3,6.2,18.6,17.4c0,0.9,0.1,1.8,0.1,3.5c0,2.1,0,2.7-0.1,3.6
			c-0.6,6.6-3.6,18.2-17.4,18.2h-11.9V522.8z M876.9,644.3l-2.3-37.1c-1-16.6-5.3-26.5-14-31.5c6.2-3.8,14.3-13,14.1-32.3
			c0-29.3-18.3-39.7-39.8-40h-35v150.4h22.6l0.1-68.8h12.6c7.3,0,15.4,6.4,16.7,24.3l2.3,35.2c0.3,5.1,1.2,9.3,1.2,9.3H878
			C878,653.7,877,649.6,876.9,644.3"/>
		<path id="path19838" class="st0" d="M1031.7,615.2c0,1.7-0.1,3.1-0.3,4.2c-0.6,8.4-3.5,17.4-13.9,17.4c-9.5,0-13.2-9.7-14-16.9
			c-0.4-4.3-0.3-7.7-0.4-20.4c-0.1-14.8,0.4-18.7,0.6-21c0.8-9.5,4.4-16.7,13.8-16.7c9.7-0.1,13.8,8.3,13.9,16.6
			c0,0.1,0.3,2.1,0.4,6.5h22.7c0-1.6-0.1-2.9-0.1-3.5c-2.6-31.4-21.8-39.1-36.9-39.1c-21.4,0-34.4,13.6-36.7,39.3
			c-0.3,2.1-0.5,5.8-0.6,17.9c-0.1,8.8,0.5,16.1,0.6,17.9c1.4,24,15.2,38.7,36.7,38.7c22.3,0.1,34.6-13.5,36.9-38.7
			c0-0.9,0.1-1.6,0.1-2.2H1031.7"/>
	</g>
</g>
</svg>
